<?xml version="1.0" encoding="utf-8"?>
<!-- Generator: Adobe Illustrator 18.0.0, SVG Export Plug-In . SVG Version: 6.00 Build 0)  -->
<!DOCTYPE svg PUBLIC "-//W3C//DTD SVG 1.1//EN" "http://www.w3.org/Graphics/SVG/1.1/DTD/svg11.dtd">
<svg version="1.1" id="Icon_Set" xmlns="http://www.w3.org/2000/svg" xmlns:xlink="http://www.w3.org/1999/xlink" x="0px" y="0px"
	 viewBox="0 0 512 512" style="enable-background:new 0 0 512 512;" xml:space="preserve">
<style type="text/css">
	.st0{fill:#4C4372;}
	.st1{fill:#F0C48A;}
	.st2{fill:#FD919E;}
	.st3{fill:#E8677D;}
	.st4{fill:#D3E6F8;}
	.st5{fill:#A4CFF2;}
	.st6{fill:#7BABF1;}
	.st7{fill:#FFFFFF;}
</style>
<g>
	<g>
		<g>
			<g>
				<circle class="st1" cx="256" cy="256" r="207"/>
			</g>
		</g>
	</g>
	<g>
		<g>
			<g>
				<g>
					<rect x="304.851" y="17.666" class="st4" width="100.644" height="252.342"/>
				</g>
			</g>
			<g>
				<g>
					<g>
						<rect x="405.49" y="118.603" class="st4" width="100.646" height="151.406"/>
					</g>
				</g>
			</g>
			<g>
				<g>
					<rect x="377.85" y="17.666" class="st5" width="27.645" height="252.342"/>
				</g>
			</g>
			<g>
				<g>
					<rect x="478.637" y="118.603" class="st5" width="27.5" height="151.406"/>
				</g>
			</g>
			<g>
				<g>
					<rect x="5.862" y="112.991" class="st4" width="100.646" height="100.937"/>
				</g>
			</g>
			<g>
				<g>
					<rect x="78.863" y="112.991" class="st5" width="27.646" height="100.937"/>
				</g>
			</g>
			<g>
				<g>
					<path class="st0" d="M106.508,219.79H5.862c-3.237,0-5.862-2.625-5.862-5.863V112.99c0-3.238,2.625-5.862,5.862-5.862h100.646
						c3.238,0,5.863,2.624,5.863,5.862v100.937C112.371,217.165,109.746,219.79,106.508,219.79z M11.725,208.065h88.921v-89.212
						H11.725V208.065z"/>
				</g>
			</g>
			<g>
				<g>
					<path class="st0" d="M405.494,275.872H304.85c-3.237,0-5.862-2.625-5.862-5.863V17.666c0-3.238,2.625-5.863,5.862-5.863
						h100.645c3.238,0,5.863,2.625,5.863,5.863v252.342C411.357,273.247,408.732,275.872,405.494,275.872z M310.713,264.146h88.92
						V23.529h-88.92V264.146z"/>
				</g>
			</g>
			<g>
				<g>
					<path class="st0" d="M405.787,124.466c-1.5,0-3.001-0.572-4.146-1.717L300.705,21.812c-2.29-2.29-2.29-6.001,0-8.291
						c2.288-2.29,6.002-2.29,8.29,0l100.937,100.937c2.291,2.29,2.291,6.001,0,8.291
						C408.788,123.894,407.287,124.466,405.787,124.466z"/>
				</g>
			</g>
			<g>
				<g>
					<path class="st0" d="M304.85,124.466c-1.5,0-3-0.572-4.145-1.717c-2.29-2.29-2.29-6.001,0-8.291l98.596-98.595
						c2.289-2.29,6.002-2.289,8.289,0c2.291,2.29,2.291,6.001,0,8.291l-98.595,98.595
						C307.851,123.893,306.35,124.466,304.85,124.466z"/>
				</g>
			</g>
			<g>
				<g>
					<path class="st0" d="M106.655,219.79c-1.502,0-3.004-0.573-4.149-1.72L1.714,117.133c-2.288-2.291-2.284-6.003,0.007-8.291
						c2.289-2.288,6.002-2.285,8.291,0.006l100.793,100.937c2.287,2.291,2.283,6.003-0.007,8.29
						C109.653,219.219,108.154,219.79,106.655,219.79z"/>
				</g>
			</g>
			<g>
				<g>
					<path class="st0" d="M5.862,219.79c-1.499,0-2.998-0.571-4.142-1.714c-2.291-2.288-2.295-5.999-0.007-8.29l100.792-100.937
						c2.287-2.292,6-2.294,8.292-0.006c2.29,2.288,2.294,6,0.007,8.291L10.012,218.07C8.866,219.217,7.364,219.79,5.862,219.79z"/>
				</g>
			</g>
			<g>
				<g>
					<path class="st0" d="M405.787,225.403c-1.5,0-3.001-0.572-4.146-1.717L300.705,122.749c-2.29-2.29-2.29-6.001,0-8.291
						c2.288-2.29,6.002-2.29,8.29,0l100.937,100.937c2.291,2.29,2.291,6.002,0,8.291
						C408.788,224.831,407.287,225.403,405.787,225.403z"/>
				</g>
			</g>
			<g>
				<g>
					<path class="st0" d="M304.85,225.403c-1.5,0-3-0.572-4.145-1.717c-2.29-2.29-2.29-6.001,0-8.291l100.936-100.937
						c2.288-2.29,6.002-2.29,8.29,0c2.291,2.29,2.291,6.001,0,8.291L308.995,223.686C307.851,224.831,306.35,225.403,304.85,225.403
						z"/>
				</g>
			</g>
			<g>
				<g>
					<path class="st0" d="M355.318,275.872c-1.5,0-3.001-0.572-4.145-1.717l-50.469-50.469c-2.29-2.29-2.29-6.001,0-8.291
						c2.288-2.289,6.002-2.289,8.29,0l50.469,50.469c2.29,2.29,2.29,6.001,0,8.291C358.319,275.299,356.818,275.872,355.318,275.872
						z"/>
				</g>
			</g>
			<g>
				<g>
					<path class="st0" d="M355.318,275.872c-1.5,0-3.001-0.572-4.145-1.717c-2.291-2.29-2.291-6.001,0-8.291l50.468-50.469
						c2.288-2.289,6.002-2.289,8.29,0c2.291,2.29,2.291,6.002,0,8.291l-50.468,50.469
						C358.319,275.299,356.818,275.872,355.318,275.872z"/>
				</g>
			</g>
			<g>
				<g>
					<g>
						<path class="st0" d="M506.137,275.872H405.491c-3.237,0-5.862-2.625-5.862-5.863V118.603c0-3.238,2.625-5.863,5.862-5.863
							h100.645c3.238,0,5.863,2.624,5.863,5.863v151.406C512,273.247,509.375,275.872,506.137,275.872z M411.353,264.146h88.921
							v-139.68h-88.921V264.146z"/>
					</g>
				</g>
				<g>
					<g>
						<path class="st0" d="M506.137,225.403c-1.502,0-3.004-0.574-4.148-1.72L401.195,122.746c-2.287-2.291-2.284-6.003,0.007-8.291
							c2.29-2.288,6.003-2.285,8.291,0.006l100.793,100.937c2.287,2.291,2.284,6.003-0.007,8.291
							C509.135,224.832,507.636,225.403,506.137,225.403z"/>
					</g>
				</g>
				<g>
					<g>
						<path class="st0" d="M405.344,225.403c-1.498,0-2.998-0.571-4.142-1.714c-2.291-2.287-2.294-5.999-0.007-8.291
							l100.793-100.937c2.287-2.292,6-2.294,8.291-0.006c2.291,2.288,2.294,6,0.007,8.291L409.493,223.683
							C408.348,224.829,406.846,225.403,405.344,225.403z"/>
					</g>
				</g>
				<g>
					<g>
						<path class="st0" d="M455.813,275.872c-1.5,0-3.001-0.572-4.145-1.717l-50.469-50.469c-2.29-2.29-2.29-6.001,0-8.291
							c2.288-2.289,6.002-2.289,8.29,0l50.468,50.469c2.291,2.29,2.291,6.001,0,8.291
							C458.814,275.299,457.313,275.872,455.813,275.872z"/>
					</g>
				</g>
				<g>
					<g>
						<path class="st0" d="M455.813,275.872c-1.498,0-2.995-0.57-4.139-1.711c-2.293-2.286-2.299-5.998-0.014-8.291l50.325-50.468
							c2.286-2.293,5.999-2.297,8.291-0.012c2.293,2.286,2.299,5.999,0.013,8.291l-50.324,50.469
							C458.819,275.297,457.315,275.872,455.813,275.872z"/>
					</g>
				</g>
			</g>
		</g>
		<g>
			<g>
				<g>
					<rect x="5.862" y="438.252" class="st2" width="500.274" height="56.081"/>
				</g>
			</g>
			<g>
				<g>
					<rect x="5.862" y="382.171" class="st2" width="500.274" height="56.081"/>
				</g>
			</g>
			<g>
				<g>
					<rect x="5.862" y="326.09" class="st2" width="500.274" height="56.081"/>
				</g>
			</g>
			<g>
				<g>
					<rect x="5.862" y="270.009" class="st2" width="500.274" height="56.081"/>
				</g>
			</g>
			<g>
				<g>
					<rect x="463.779" y="269.872" class="st3" width="42.357" height="224.462"/>
				</g>
			</g>
			<g>
				<g>
					<rect x="5.862" y="213.927" class="st2" width="250.14" height="56.082"/>
				</g>
			</g>
			<g>
				<g>
					<rect x="213.642" y="213.927" class="st3" width="42.36" height="56.355"/>
				</g>
			</g>
			<g>
				<g>
					<path class="st0" d="M506.137,500.196H5.862c-3.237,0-5.862-2.625-5.862-5.862v-56.082c0-3.238,2.625-5.863,5.862-5.863
						h500.274c3.238,0,5.863,2.625,5.863,5.863v56.082C512,497.571,509.375,500.196,506.137,500.196z M11.725,488.471h488.55
						v-44.357H11.725V488.471z"/>
				</g>
			</g>
			<g>
				<g>
					<path class="st0" d="M506.137,444.115H5.862c-3.237,0-5.862-2.625-5.862-5.862v-56.081c0-3.238,2.625-5.862,5.862-5.862
						h500.274c3.238,0,5.863,2.625,5.863,5.862v56.081C512,441.49,509.375,444.115,506.137,444.115z M11.725,432.39h488.55v-44.356
						H11.725V432.39z"/>
				</g>
			</g>
			<g>
				<g>
					<path class="st0" d="M506.137,388.034H5.862c-3.237,0-5.862-2.625-5.862-5.863V326.09c0-3.238,2.625-5.862,5.862-5.862h500.274
						c3.238,0,5.863,2.625,5.863,5.862v56.081C512,385.409,509.375,388.034,506.137,388.034z M11.725,376.309h488.55v-44.356H11.725
						V376.309z"/>
				</g>
			</g>
			<g>
				<g>
					<path class="st0" d="M506.137,331.953H5.862c-3.237,0-5.862-2.625-5.862-5.863v-56.081c0-3.238,2.625-5.863,5.862-5.863
						h500.274c3.238,0,5.863,2.625,5.863,5.863v56.081C512,329.328,509.375,331.953,506.137,331.953z M11.725,320.227h488.55
						v-44.356H11.725V320.227z"/>
				</g>
			</g>
			<g>
				<g>
					<path class="st0" d="M256.002,275.872H5.862c-3.237,0-5.862-2.625-5.862-5.863v-56.082c0-3.238,2.625-5.863,5.862-5.863h250.14
						c3.237,0,5.862,2.625,5.862,5.863v56.082C261.864,273.247,259.239,275.872,256.002,275.872z M11.725,264.146h238.414V219.79
						H11.725V264.146z"/>
				</g>
			</g>
			<g>
				<g>
					<g>
						<path class="st0" d="M44.203,500.196c-3.238,0-5.863-2.625-5.863-5.862v-56.082c0-3.238,2.625-5.863,5.863-5.863
							c3.237,0,5.862,2.625,5.862,5.863v56.082C50.065,497.571,47.44,500.196,44.203,500.196z"/>
					</g>
				</g>
				<g>
					<g>
						<path class="st0" d="M128.922,500.196c-3.237,0-5.862-2.625-5.862-5.862v-56.082c0-3.238,2.625-5.863,5.862-5.863
							c3.238,0,5.863,2.625,5.863,5.863v56.082C134.785,497.571,132.16,500.196,128.922,500.196z"/>
					</g>
				</g>
				<g>
					<g>
						<path class="st0" d="M213.642,500.196c-3.237,0-5.862-2.625-5.862-5.862v-56.082c0-3.238,2.625-5.863,5.862-5.863
							c3.238,0,5.862,2.625,5.862,5.863v56.082C219.504,497.571,216.88,500.196,213.642,500.196z"/>
					</g>
				</g>
				<g>
					<g>
						<path class="st0" d="M298.361,500.196c-3.237,0-5.862-2.625-5.862-5.862v-56.082c0-3.238,2.625-5.863,5.862-5.863
							c3.238,0,5.863,2.625,5.863,5.863v56.082C304.225,497.571,301.6,500.196,298.361,500.196z"/>
					</g>
				</g>
				<g>
					<g>
						<path class="st0" d="M383.081,500.196c-3.238,0-5.862-2.625-5.862-5.862v-56.082c0-3.238,2.624-5.863,5.862-5.863
							c3.237,0,5.862,2.625,5.862,5.863v56.082C388.943,497.571,386.318,500.196,383.081,500.196z"/>
					</g>
				</g>
				<g>
					<g>
						<path class="st0" d="M467.801,500.196c-3.238,0-5.863-2.625-5.863-5.862v-56.082c0-3.238,2.625-5.863,5.863-5.863
							c3.237,0,5.861,2.625,5.861,5.863v56.082C473.662,497.571,471.038,500.196,467.801,500.196z"/>
					</g>
				</g>
			</g>
			<g>
				<g>
					<g>
						<path class="st0" d="M86.563,444.115c-3.237,0-5.862-2.625-5.862-5.862v-56.081c0-3.238,2.625-5.862,5.862-5.862
							c3.238,0,5.862,2.625,5.862,5.862v56.081C92.425,441.49,89.801,444.115,86.563,444.115z"/>
					</g>
				</g>
				<g>
					<g>
						<path class="st0" d="M171.282,444.115c-3.237,0-5.862-2.625-5.862-5.862v-56.081c0-3.238,2.625-5.862,5.862-5.862
							c3.237,0,5.862,2.625,5.862,5.862v56.081C177.145,441.49,174.52,444.115,171.282,444.115z"/>
					</g>
				</g>
				<g>
					<g>
						<path class="st0" d="M256.002,444.115c-3.238,0-5.863-2.625-5.863-5.862v-56.081c0-3.238,2.625-5.862,5.863-5.862
							c3.237,0,5.862,2.625,5.862,5.862v56.081C261.864,441.49,259.239,444.115,256.002,444.115z"/>
					</g>
				</g>
				<g>
					<g>
						<path class="st0" d="M340.721,444.115c-3.237,0-5.862-2.625-5.862-5.862v-56.081c0-3.238,2.625-5.862,5.862-5.862
							c3.238,0,5.863,2.625,5.863,5.862v56.081C346.584,441.49,343.959,444.115,340.721,444.115z"/>
					</g>
				</g>
				<g>
					<g>
						<path class="st0" d="M425.44,444.115c-3.237,0-5.862-2.625-5.862-5.862v-56.081c0-3.238,2.625-5.862,5.862-5.862
							s5.862,2.625,5.862,5.862v56.081C431.303,441.49,428.678,444.115,425.44,444.115z"/>
					</g>
				</g>
			</g>
			<g>
				<g>
					<g>
						<path class="st0" d="M44.203,388.034c-3.238,0-5.863-2.625-5.863-5.863V326.09c0-3.238,2.625-5.862,5.863-5.862
							c3.237,0,5.862,2.625,5.862,5.862v56.081C50.065,385.409,47.44,388.034,44.203,388.034z"/>
					</g>
				</g>
				<g>
					<g>
						<path class="st0" d="M128.922,388.034c-3.237,0-5.862-2.625-5.862-5.863V326.09c0-3.238,2.625-5.862,5.862-5.862
							c3.238,0,5.863,2.625,5.863,5.862v56.081C134.785,385.409,132.16,388.034,128.922,388.034z"/>
					</g>
				</g>
				<g>
					<g>
						<path class="st0" d="M213.642,388.034c-3.237,0-5.862-2.625-5.862-5.863V326.09c0-3.238,2.625-5.862,5.862-5.862
							c3.238,0,5.862,2.625,5.862,5.862v56.081C219.504,385.409,216.88,388.034,213.642,388.034z"/>
					</g>
				</g>
				<g>
					<g>
						<path class="st0" d="M298.361,388.034c-3.237,0-5.862-2.625-5.862-5.863V326.09c0-3.238,2.625-5.862,5.862-5.862
							c3.238,0,5.863,2.625,5.863,5.862v56.081C304.225,385.409,301.6,388.034,298.361,388.034z"/>
					</g>
				</g>
				<g>
					<g>
						<path class="st0" d="M383.081,388.034c-3.238,0-5.862-2.625-5.862-5.863V326.09c0-3.238,2.624-5.862,5.862-5.862
							c3.237,0,5.862,2.625,5.862,5.862v56.081C388.943,385.409,386.318,388.034,383.081,388.034z"/>
					</g>
				</g>
				<g>
					<g>
						<path class="st0" d="M467.801,388.034c-3.238,0-5.863-2.625-5.863-5.863V326.09c0-3.238,2.625-5.862,5.863-5.862
							c3.237,0,5.861,2.625,5.861,5.862v56.081C473.662,385.409,471.038,388.034,467.801,388.034z"/>
					</g>
				</g>
			</g>
			<g>
				<g>
					<g>
						<path class="st0" d="M44.203,276.145c-3.238,0-5.863-2.625-5.863-5.862v-56.081c0-3.238,2.625-5.863,5.863-5.863
							c3.237,0,5.862,2.625,5.862,5.863v56.081C50.065,273.521,47.44,276.145,44.203,276.145z"/>
					</g>
				</g>
				<g>
					<g>
						<path class="st0" d="M128.922,276.145c-3.237,0-5.862-2.625-5.862-5.862v-56.081c0-3.238,2.625-5.863,5.862-5.863
							c3.238,0,5.863,2.625,5.863,5.863v56.081C134.785,273.521,132.16,276.145,128.922,276.145z"/>
					</g>
				</g>
				<g>
					<g>
						<path class="st0" d="M213.642,276.145c-3.237,0-5.862-2.625-5.862-5.862v-56.081c0-3.238,2.625-5.863,5.862-5.863
							c3.238,0,5.862,2.625,5.862,5.863v56.081C219.504,273.521,216.88,276.145,213.642,276.145z"/>
					</g>
				</g>
			</g>
			<g>
				<g>
					<g>
						<path class="st0" d="M86.563,331.953c-3.237,0-5.862-2.625-5.862-5.863v-56.081c0-3.238,2.625-5.863,5.862-5.863
							c3.238,0,5.862,2.625,5.862,5.863v56.081C92.425,329.328,89.801,331.953,86.563,331.953z"/>
					</g>
				</g>
				<g>
					<g>
						<path class="st0" d="M171.282,331.953c-3.237,0-5.862-2.625-5.862-5.863v-56.081c0-3.238,2.625-5.863,5.862-5.863
							c3.237,0,5.862,2.625,5.862,5.863v56.081C177.145,329.328,174.52,331.953,171.282,331.953z"/>
					</g>
				</g>
				<g>
					<g>
						<path class="st0" d="M256.002,331.953c-3.238,0-5.863-2.625-5.863-5.863v-56.081c0-3.238,2.625-5.863,5.863-5.863
							c3.237,0,5.862,2.625,5.862,5.863v56.081C261.864,329.328,259.239,331.953,256.002,331.953z"/>
					</g>
				</g>
				<g>
					<g>
						<path class="st0" d="M340.721,331.953c-3.237,0-5.862-2.625-5.862-5.863v-56.081c0-3.238,2.625-5.863,5.862-5.863
							c3.238,0,5.863,2.625,5.863,5.863v56.081C346.584,329.328,343.959,331.953,340.721,331.953z"/>
					</g>
				</g>
				<g>
					<g>
						<path class="st0" d="M425.44,331.953c-3.237,0-5.862-2.625-5.862-5.863v-56.081c0-3.238,2.625-5.863,5.862-5.863
							s5.862,2.625,5.862,5.863v56.081C431.303,329.328,428.678,331.953,425.44,331.953z"/>
					</g>
				</g>
			</g>
		</g>
	</g>
</g>
</svg>
