<?xml version="1.0" encoding="utf-8"?>
<!-- Generator: Adobe Illustrator 24.0.0, SVG Export Plug-In . SVG Version: 6.00 Build 0)  -->
<svg version="1.1" id="Layer_1" xmlns="http://www.w3.org/2000/svg" xmlns:xlink="http://www.w3.org/1999/xlink" x="0px" y="0px"
	 viewBox="0 0 256 256" style="enable-background:new 0 0 256 256;" xml:space="preserve">
<style type="text/css">
	.st0{fill:#FFB69F;}
	.st1{fill:#72C2E9;}
	.st2{fill:#C2E5FF;}
	.st3{fill:#FC5D3D;}
	.st4{fill:#AFAFAF;}
	.st5{fill:#FFCBC3;}
	.st6{fill:#F0C020;}
	.st7{fill:#F8E5B0;}
	.st8{fill:#EFEFEF;}
	.st9{fill:#EEC21E;}
	.st10{fill:#FFFFFF;}
	.st11{fill:#F1BF21;}
	.st12{fill:#E8A61E;}
	.st13{fill:#7D7B79;}
	.st14{fill:#B34F33;}
	.st15{fill:#F8E5B2;}
	.st16{fill:#C5E5FE;}
	.st17{fill:#4C4944;}
	.st18{fill:#4BA5C8;}
	.st19{fill:#AFAEAF;}
	.st20{fill:#CF941C;}
	.st21{fill:#7C7B7A;}
	.st22{fill:#FAE0E1;}
	.st23{fill:#13BF6D;}
	.st24{fill:#76FFBB;}
	.st25{fill:#F2E1D7;}
	.st26{fill:#878787;}
	.st27{fill:#F9E5AF;}
	.st28{fill:#E8A61F;}
	.st29{fill:none;stroke:#000000;stroke-width:5;stroke-linecap:round;stroke-linejoin:round;stroke-miterlimit:10;}
	.st30{fill:#EFEFF0;}
	.st31{fill:#E8A61B;}
	.st32{fill:#EFEFEE;}
	.st33{fill:#4C4945;}
	.st34{fill:#EA8F7D;}
	.st35{fill:#D6C0B3;}
	.st36{fill:#EEC120;}
</style>
<g>
</g>
<g>
	<g>
		<g>
			<g>
				<path class="st0" d="M178,82.705c0,5.71-4.61,10.36-10.35,10.36h-4.19c-1.65,9.5-7,17.59-14.4,22.9v7.25v6.6
					c0,2.4,1.57,4.53,3.88,5.22l7.01,2.14c-7.87,8.21-18.96,13.33-31.24,13.33c-12.45,0-23.68-5.27-31.57-13.68l-0.01-0.01
					l5.88-1.78c2.3-0.69,3.88-2.82,3.88-5.22l0.01-6.6v-7.24c-7.34-5.31-12.68-13.35-14.36-22.91h-4.2
					c-5.73,0-10.37-4.64-10.37-10.36c0-5.71,4.62-10.36,10.37-10.36h3.64v-12.05h72.03v12.04h3.64
					C173.38,72.335,178,76.975,178,82.705z"/>
			</g>
			<g>
				<polygon class="st4" points="150.01,60.295 164,77.115 164.01,77.115 164.01,60.295 				"/>
			</g>
			<g>
				<path class="st34" d="M149.06,115.965v7.25c-6.27,3.67-13.62,5.65-21.11,5.65c-7.55,0-14.74-1.94-21.05-5.65v-7.24
					C119.67,125.385,137.22,124.765,149.06,115.965z"/>
			</g>
			<g>
				<polygon class="st4" points="105.98,60.295 91.99,77.115 91.98,77.115 91.98,60.295 				"/>
			</g>
			<g>
				<polygon class="st6" points="188.63,252.625 67.34,252.625 68.38,208.935 68.77,192.875 88.77,192.875 88.77,176.125 
					167.19,176.125 167.19,192.875 187.19,192.875 187.58,208.935 				"/>
			</g>
			<g>
				<path class="st27" d="M178.47,248.622c-1.354,0-2.466-1.08-2.498-2.44l-0.078-3.259c-0.033-1.38,1.059-2.526,2.439-2.56
					c1.35-0.034,2.526,1.059,2.559,2.439l0.078,3.259c0.033,1.38-1.059,2.526-2.439,2.56
					C178.51,248.622,178.49,248.622,178.47,248.622z M178.15,235.366c-1.353,0-2.466-1.08-2.498-2.44l-0.722-29.991
					c-0.033-1.38,1.059-2.526,2.438-2.56c1.382-0.051,2.526,1.059,2.56,2.439l0.722,29.991c0.033,1.38-1.059,2.526-2.438,2.56
					C178.191,235.366,178.171,235.366,178.15,235.366z"/>
			</g>
			<g>
				<path class="st1" d="M167.19,139.365v36.76H88.77v-36.76l8.37-2.54c7.89,8.41,19.12,13.68,31.57,13.68
					c12.28,0,23.37-5.12,31.24-13.33L167.19,139.365z"/>
			</g>
			<g>
				<path class="st1" d="M69.92,145.105l-1.15,47.77l-0.39,16.06H43.53c-1.86,0-3.27-1.68-2.95-3.52l7.48-42.91
					c1.22-6.97,6.25-12.65,13.01-14.71C63.24,147.135,61.5,147.665,69.92,145.105z"/>
			</g>
			<g>
				<polygon class="st6" points="88.77,139.365 88.77,192.875 68.77,192.875 69.92,145.105 				"/>
			</g>
			<g>
				<path class="st1" d="M212.47,208.935h-24.89l-0.39-16.06l-1.14-47.64l0.03-0.13c8.37,2.55,6.62,2.02,8.85,2.69
					c6.76,2.06,11.79,7.74,13.01,14.71l7.48,42.91C215.74,207.255,214.33,208.935,212.47,208.935z"/>
			</g>
			<g>
				<polygon class="st6" points="187.19,192.875 167.19,192.875 167.19,139.365 186.05,145.105 186.05,145.235 				"/>
			</g>
			<g>
				<g>
					<polygon class="st0" points="209.66,208.935 187.58,208.935 188.63,252.625 211.67,252.625 					"/>
				</g>
				<g>
					<polygon class="st0" points="44.33,252.625 67.34,252.625 68.38,208.935 46.34,208.935 					"/>
				</g>
			</g>
		</g>
		<g>
			<g>
				<path class="st6" d="M166.052,46.653h-1.838c0-17.317-12.262-31.761-28.593-35.112v-0.549c0-4.206-3.411-7.617-7.626-7.617
					c-4.206,0-7.617,3.411-7.617,7.617v0.549c-16.322,3.356-28.593,17.794-28.593,35.112h-1.838c-3.713,0-6.83,2.995-6.83,6.821
					c0,3.767,3.054,6.821,6.83,6.821h76.104c3.791,0,6.83-3.078,6.83-6.821C172.882,49.707,169.819,46.653,166.052,46.653z"/>
			</g>
			<g>
				<path class="st7" d="M154.032,40.875c-0.077-0.363-0.162-0.723-0.255-1.081c-0.349-1.336,0.453-2.701,1.789-3.049
					c1.334-0.345,2.702,0.453,3.049,1.79c0.112,0.43,0.215,0.864,0.308,1.3c0.287,1.351-0.574,2.678-1.925,2.965
					C155.635,43.089,154.317,42.216,154.032,40.875z M149.941,31.614c-2.298-3.219-5.354-5.871-8.839-7.67
					c-1.228-0.633-1.708-2.142-1.075-3.368c0.634-1.228,2.146-1.706,3.368-1.075c4.188,2.162,7.858,5.346,10.616,9.208
					c0.802,1.124,0.541,2.685-0.583,3.487C152.312,32.995,150.747,32.742,149.941,31.614z"/>
			</g>
		</g>
	</g>
	<g>
		<path d="M111.229,79.778c1.381,0,2.5-1.119,2.5-2.5v-2.12c0-1.381-1.119-2.5-2.5-2.5s-2.5,1.119-2.5,2.5v2.12
			C108.729,78.659,109.848,79.778,111.229,79.778z"/>
		<path d="M144.748,79.778c1.381,0,2.5-1.119,2.5-2.5v-2.12c0-1.381-1.119-2.5-2.5-2.5s-2.5,1.119-2.5,2.5v2.12
			C142.248,78.659,143.367,79.778,144.748,79.778z"/>
		<path d="M127.99,108.12c5.946,0,10.922-3.746,12.829-8.89c0.49-1.264-0.156-2.726-1.46-3.21c-1.26-0.48-2.75,0.21-3.22,1.46
			c-1.27,3.38-4.54,5.64-8.149,5.64c-3.62,0-6.891-2.26-8.141-5.63c-0.47-1.25-1.95-1.94-3.22-1.47
			c-1.262,0.468-1.959,1.873-1.47,3.21C117.071,104.386,122.055,108.12,127.99,108.12z"/>
		<path d="M127.988,89.454c1.381,0,2.5-1.119,2.5-2.5v-9.676c0-1.381-1.119-2.5-2.5-2.5s-2.5,1.119-2.5,2.5v9.676
			C125.488,88.334,126.607,89.454,127.988,89.454z"/>
		<path d="M217.88,204.99l-2.45-14.04c-0.229-1.34-1.54-2.27-2.89-2.03c-1.334,0.225-2.262,1.507-2.03,2.87c0,0.01,0,0.01,0,0.02
			c0.012,0.068,2.46,14.061,2.46,14.13c-0.01,0.26-0.24,0.5-0.5,0.5c-5.67,0-16.759,0-22.45,0c-0.063-2.641-0.649-26.947-1.39-57.94
			c1.196,0.354,4.978,1.505,5.58,1.69c5.89,1.79,10.2,6.68,11.27,12.75l1.59,9.17c0.216,1.231,1.344,2.253,2.9,2.03
			c1.368-0.248,2.274-1.55,2.03-2.89l-1.601-9.17c-1.401-8.001-7.17-14.365-14.739-16.68c-2.62-0.786-41.004-12.454-42.005-12.76
			c-1.233-0.369-2.096-1.531-2.096-2.825v-12.606c7.076-5.442,11.961-13.034,13.942-21.644h2.149c7.085,0,12.85-5.769,12.85-12.86
			c0-7.097-5.765-12.87-12.85-12.87h-1.141v-7.068c4.926-0.242,8.87-4.312,8.87-9.297c0-4.92-3.84-9-8.75-9.3
			c-1.062-16.645-12.717-30.514-28.61-34.64c-0.716-4.872-4.905-8.65-10.02-8.65c-5.033,0-9.289,3.688-10.021,8.65
			c-7.779,2.02-14.62,6.36-19.8,12.56c-0.858,1.019-0.778,2.593,0.32,3.52c1.02,0.85,2.67,0.7,3.52-0.32
			c4.162-4.981,9.714-8.642,15.859-10.527v29.39H94.383c0.053-0.694,0.121-1.386,0.217-2.072c0.185-1.362-0.765-2.632-2.14-2.82
			c-1.36-0.18-2.641,0.79-2.82,2.14c-0.12,0.92-0.22,1.85-0.27,2.77c-4.91,0.31-8.75,4.39-8.75,9.3c0,4.982,3.929,9.05,8.86,9.297
			v7.078H88.34c-7.097,0-12.87,5.769-12.87,12.86c0,7.091,5.773,12.86,12.87,12.86h2.164c2.001,8.623,6.873,16.212,13.895,21.649
			l-0.01,12.601c0,1.293-0.863,2.455-2.104,2.828c-5.459,1.652-23.211,7.066-41.943,12.761c-7.705,2.348-13.355,8.735-14.745,16.672
			l-7.479,42.911c-0.555,3.182,1.743,6.449,5.603,6.449L43.2,222.81c-0.063,1.376,1.027,2.61,2.5,2.61c1.34,0,2.43-1.05,2.489-2.39
			l0.539-11.595h17.096l-0.984,41.13c-0.033,1.38,1.06,2.526,2.439,2.559c0.021,0,0.04,0,0.061,0c1.354,0,2.466-1.081,2.498-2.44
			l1.371-57.31H88.77c1.381,0,2.5-1.119,2.5-2.5v-14.25h73.42v14.25c0,1.381,1.119,2.5,2.5,2.5h17.56l1.382,57.31
			c0.032,1.36,1.145,2.44,2.498,2.44c0.021,0,0.041,0,0.062,0c1.38-0.033,2.472-1.179,2.438-2.56l-0.991-41.125h17.135l1.9,41.3
			c0.062,1.34,1.167,2.385,2.495,2.385c0.039,0,0.078-0.001,0.117-0.002c1.379-0.063,2.445-1.233,2.382-2.612l-1.889-41.07
			C216.114,211.44,218.477,208.1,217.88,204.99z M94.48,62.795h6.169l-6.169,7.417V62.795z M161.51,62.795v7.417l-6.169-7.417
			H161.51z M167.65,74.835c4.328,0,7.85,3.531,7.85,7.87c0,4.334-3.521,7.86-7.85,7.86h-1.328c0.115-1.212,0.177-2.469,0.177-3.77
			v-9.447c0.007-0.073,0.01-0.147,0.01-0.223v-2.29H167.65z M161.611,44.152h-23.49V14.757
			C151.172,18.74,160.586,30.485,161.611,44.152z M122.88,10.99c0.01-2.82,2.3-5.11,5.12-5.12c2.81,0.01,5.109,2.3,5.12,5.12
			c0,3.634,0.001-12.688,0.001,33.163h-10.242C122.879,2.988,122.88,13.891,122.88,10.99z M85.62,53.47c0-2.37,1.949-4.31,4.33-4.32
			c0.233,0,74.837,0,76.1,0c2.38,0.01,4.33,1.95,4.33,4.32c0,2.38-1.95,4.32-4.33,4.32h-76.1C87.569,57.79,85.62,55.85,85.62,53.47z
			 M80.47,82.705c0-4.334,3.53-7.86,7.87-7.86h1.141v11.95c0,1.289,0.067,2.548,0.187,3.77H88.34
			C84,90.565,80.47,87.039,80.47,82.705z M94.48,86.795v-8.764l12.672-15.236h41.685L161.5,78.018v8.777
			c0,10.85-5.078,20.811-13.932,27.164c-11.307,8.402-27.785,8.404-39.203-0.009C99.278,107.376,94.48,97.141,94.48,86.795z
			 M103.729,137.43c3.333-1.001,5.661-4.132,5.661-7.611l0.007-9.273c5.754,3.207,12.193,4.812,18.623,4.811
			c6.423,0,12.835-1.602,18.54-4.8v9.257c0,3.487,2.329,6.619,5.65,7.611l2.9,0.885c-7.356,6.279-16.585,9.694-26.4,9.694
			c-9.84,0-19.389-3.616-26.775-10.032L103.729,137.43z M43.043,205.844l7.479-42.908c1.063-6.068,5.384-10.954,11.275-12.75
			l5.539-1.684l-1.397,57.932H43.53C43.226,206.435,42.987,206.16,43.043,205.844z M86.27,190.375H71.33l1.046-43.404l13.894-4.231
			V190.375z M91.27,173.625v-32.406l5.139-1.559c8.547,8.5,20.23,13.345,32.302,13.345c12.077,0,23.364-4.604,31.957-13.001
			l4.022,1.217v32.404H91.27z M169.689,190.375v-47.636l13.901,4.23c0.355,14.813,0.123,5.097,1.039,43.406H169.689z"/>
		<path d="M210.83,179.06c-1.371,0.248-2.271,1.519-2.04,2.9c0.255,1.458,1.68,2.292,2.89,2.03c1.364-0.227,2.269-1.524,2.04-2.89
			C213.479,179.76,212.18,178.83,210.83,179.06z"/>
		<path d="M45.35,230.41c-1.37-0.06-2.55,1.01-2.609,2.38c-0.063,1.404,1.04,2.62,2.5,2.62c1.34,0,2.43-1.05,2.489-2.39
			C47.792,231.647,46.721,230.472,45.35,230.41z"/>
		<path d="M44.89,240.4c-1.37-0.07-2.55,1.01-2.609,2.38l-0.45,9.73c-0.065,1.437,1.072,2.61,2.5,2.61c1.34,0,2.439-1.04,2.5-2.38
			l0.439-9.73C47.34,241.64,46.27,240.47,44.89,240.4z"/>
		<path d="M166.51,210.875c-9.544,0-67.989,0-77.02,0c-1.381,0-2.5,1.119-2.5,2.5v39.25c0,1.381,1.119,2.5,2.5,2.5
			s2.5-1.119,2.5-2.5v-36.75h32.77v36.75c0,1.381,1.119,2.5,2.5,2.5s2.5-1.119,2.5-2.5v-36.75h34.25v36.75
			c0,1.381,1.119,2.5,2.5,2.5s2.5-1.119,2.5-2.5v-39.25C169.01,211.994,167.891,210.875,166.51,210.875z"/>
		<circle cx="109.49" cy="222.87" r="2.5"/>
		<circle cx="99.49" cy="222.87" r="2.5"/>
		<circle cx="119.49" cy="222.87" r="2.5"/>
		<path d="M157.26,220.37c-1.38,0-2.5,1.12-2.5,2.51c0,1.38,1.12,2.5,2.5,2.5s2.5-1.12,2.5-2.5
			C159.76,221.49,158.64,220.37,157.26,220.37z"/>
		<path d="M147.26,220.37c-1.38,0-2.5,1.12-2.5,2.51c0,1.38,1.12,2.5,2.5,2.5s2.5-1.12,2.5-2.5
			C149.76,221.49,148.64,220.37,147.26,220.37z"/>
		<path d="M137.26,220.37c-1.38,0-2.5,1.12-2.5,2.51c0,1.38,1.12,2.5,2.5,2.5s2.5-1.12,2.5-2.5
			C139.76,221.49,138.64,220.37,137.26,220.37z"/>
		<path d="M78.77,177.958c-1.381,0-2.5,1.119-2.5,2.5v0.833c0,1.381,1.119,2.5,2.5,2.5s2.5-1.119,2.5-2.5v-0.833
			C81.27,179.078,80.15,177.958,78.77,177.958z"/>
		<path d="M177.189,177.958c-1.381,0-2.5,1.119-2.5,2.5v0.833c0,1.381,1.119,2.5,2.5,2.5s2.5-1.119,2.5-2.5v-0.833
			C179.689,179.078,178.57,177.958,177.189,177.958z"/>
		<path d="M93.819,34.44c1.318,0.56,2.754-0.045,3.311-1.28c0.55-1.26-0.021-2.74-1.28-3.29c-1.229-0.55-2.75,0.04-3.29,1.26
			c-0.01,0-0.01,0.01-0.01,0.01C91.974,32.443,92.612,33.905,93.819,34.44z"/>
	</g>
</g>
</svg>
