<?xml version="1.0" encoding="UTF-8"?>
<svg version="1.1" xmlns="http://www.w3.org/2000/svg" width="2131" height="339">
<path d="M0 0 C14.85 0 29.7 0 45 0 C54.49475416 10.26271221 54.49475416 10.26271221 55.88671875 15.03125 C57.91053108 21.0550793 60.83181048 25.90322235 64.3125 31.1875 C65.39357841 32.92233032 66.46898221 34.66070804 67.5390625 36.40234375 C68.09368164 37.29937012 68.64830078 38.19639648 69.21972656 39.12060547 C70.10096191 40.54590576 70.10096191 40.54590576 71 42 C71.97404785 43.57418701 71.97404785 43.57418701 72.96777344 45.18017578 C81.12519147 58.36961629 89.22508352 71.58079319 97 85 C102.32916783 76.55822087 107.57698012 68.07613673 112.6875 59.5 C118.97817165 48.95937141 125.48595728 38.55955709 132.01513672 28.16552734 C134.10073631 24.83934231 136.17849578 21.50832747 138.25390625 18.17578125 C138.94379639 17.06879883 139.63368652 15.96181641 140.34448242 14.82128906 C141.67754203 12.68185421 143.00976347 10.54189682 144.34106445 8.40136719 C144.93749756 7.44520508 145.53393066 6.48904297 146.1484375 5.50390625 C146.67614746 4.65642822 147.20385742 3.8089502 147.74755859 2.93579102 C149 1 149 1 150 0 C164.52 0 179.04 0 194 0 C194 64.35 194 128.7 194 195 C178.82 195 163.64 195 148 195 C148 158.04 148 121.08 148 83 C142.39 92.57 136.78 102.14 131 112 C128.08815884 116.94054554 125.17495667 121.87978751 122.25 126.8125 C121.28320312 128.44735352 121.28320312 128.44735352 120.296875 130.11523438 C119.07449176 132.17800609 117.83887277 134.23302495 116.58666992 136.27783203 C114.97907647 138.91319301 114.97907647 138.91319301 113.9074707 141.51513672 C112.80666777 143.88605668 112.02615498 145.33881006 110 147 C105.5252201 147.9713811 101.23844176 147.75459814 96.6875 147.5 C95.46998047 147.46390625 94.25246094 147.4278125 92.99804688 147.390625 C89.99549748 147.29642737 86.99935361 147.16502633 84 147 C83.45194702 146.04637573 83.45194702 146.04637573 82.89282227 145.07348633 C75.6447523 132.46878173 68.37363412 119.8773905 61.0385437 107.3230896 C60.31258747 106.07985509 59.58756949 104.83607216 58.86355591 103.59170532 C57.83757705 101.82904068 56.80791436 100.06857677 55.77734375 98.30859375 C55.19202881 97.30626709 54.60671387 96.30394043 54.00366211 95.27124023 C51.45016963 91.10233007 48.73558422 87.05099144 46 83 C46.02996567 83.81459686 46.05993134 84.62919373 46.09080505 85.46847534 C46.92408948 108.81560635 47.12948216 132.13189347 47.06866455 155.49243164 C47.05630742 160.76953872 47.05198888 166.04665865 47.04621124 171.32377625 C47.03672633 179.21587609 47.0174862 187.10789572 47 195 C31.49 195 15.98 195 0 195 C0 130.65 0 66.3 0 0 Z " fill="#757B7D" transform="translate(408,3)"/>
<path d="M0 0 C15.51 0 31.02 0 47 0 C58.46139706 14.89981618 58.46139706 14.89981618 63.3125 21.6875 C64.42312052 23.23311356 65.5337993 24.77868526 66.64453125 26.32421875 C67.19963379 27.09813965 67.75473633 27.87206055 68.32666016 28.66943359 C71.04276042 32.45231849 73.77182509 36.22581897 76.5 40 C79.74142158 44.48602626 82.9814197 48.97304852 86.21484375 53.46484375 C92.34174112 61.97111873 98.52003211 70.43647661 104.74951172 78.86791992 C112.6007926 89.50567021 120.31534909 100.24148873 128 111 C128 74.37 128 37.74 128 0 C143.51 0 159.02 0 175 0 C175 63.69 175 127.38 175 193 C159.16 193 143.32 193 127 193 C122.71 187.06 118.42 181.12 114 175 C111.42293705 171.44113385 111.42293705 171.44113385 108.84545898 167.88256836 C101.65266708 157.94586417 94.57524966 147.93047064 87.52050781 137.89550781 C81.3623848 129.13936322 75.15414784 120.42346444 68.87329102 111.75488281 C63.67408182 104.57029354 58.55829897 97.32803514 53.46289062 90.06958008 C51.32014161 87.03819099 49.15769311 84.02077036 47 81 C47 117.96 47 154.92 47 193 C31.49 193 15.98 193 0 193 C0 129.31 0 65.62 0 0 Z " fill="#5E6168" transform="translate(1956,3)"/>
<path d="M0 0 C21.07727617 16.86774984 32.82607918 38.94668897 37.58984375 65.2578125 C40.61369439 92.84684975 35.43060032 121.2950041 17.875 143.4375 C16.588002 144.9622862 15.29694105 146.48366207 14 148 C13.236875 149.010625 12.47375 150.02125 11.6875 151.0625 C-5.13326251 169.44798461 -30.43741076 180.7435057 -55.23144531 182.12426758 C-85.2448545 183.1412977 -111.67429249 174.90778876 -133.875 154.3359375 C-153.2658466 135.63009363 -163.49702613 110.41026445 -164.28369141 83.57788086 C-164.6592554 54.0451833 -154.61010075 28.56975633 -134.375 7 C-97.98619899 -28.04630156 -39.99892146 -29.10350973 0 0 Z M-102.125 43.0625 C-111.26585436 53.71483422 -114.39753417 66.50362624 -114.375 80.1875 C-114.37338867 81.20400635 -114.37177734 82.2205127 -114.37011719 83.26782227 C-114.24126594 91.18522642 -113.18053957 97.68586719 -110 105 C-109.72285156 105.72703125 -109.44570312 106.4540625 -109.16015625 107.203125 C-104.90825677 117.15688047 -95.60166954 126.01546144 -85.8203125 130.4375 C-71.7527727 136.05175625 -57.50562296 136.85956638 -43 132 C-29.24574986 126.04343498 -20.65337675 116.75539792 -14.6875 103.0625 C-9.16448515 88.10532246 -9.79261294 71.54334398 -15.21875 56.65625 C-21.39274694 43.3478566 -31.63224161 33.93605618 -45.31640625 28.8125 C-66.09652001 22.5209954 -87.00816423 27.46078459 -102.125 43.0625 Z " fill="#757B7D" transform="translate(342,20)"/>
<path d="M0 0 C0.65913391 0.00087616 1.31826782 0.00175232 1.99737549 0.00265503 C29.06178396 0.12101011 53.20358442 9.57431574 72.69140625 28.56640625 C92.93162153 49.26728076 101.69132304 74.86146684 101.7565918 103.51928711 C101.39639655 131.70514577 89.89244379 156.42067257 69.99243164 176.11645508 C50.66319464 194.72699837 24.08317489 202.78339983 -2.31469727 202.67773438 C-26.05529327 202.16447557 -48.60752064 193.94958437 -66.5625 178.375 C-67.573125 177.611875 -68.58375 176.84875 -69.625 176.0625 C-88.00678011 159.24512671 -99.29462678 133.93817134 -100.68701172 109.15917969 C-101.74331495 78.15241535 -93.42621769 52.06531007 -72.34375 28.94140625 C-53.28976142 9.0487738 -27.08736942 -0.03958632 0 0 Z M-36.5625 60.8125 C-47.18451316 72.32777204 -51.44163341 86.30177077 -51.59765625 101.88671875 C-51.01713884 114.53067103 -47.90059777 125.99380657 -40.5625 136.375 C-39.82 137.426875 -39.0775 138.47875 -38.3125 139.5625 C-28.01594557 150.09306703 -14.57578122 155.42309267 0.0625 155.625 C13.29949288 155.48595596 27.01582258 151.37834954 36.85546875 142.11328125 C48.33077758 129.50460859 53.01021886 113.80485335 52.3125 96.9375 C50.94592391 81.85857519 46.00092715 68.78750116 34.875 58.2265625 C13.60979605 42.07318642 -16.9960697 42.1486398 -36.5625 60.8125 Z " fill="#BBD041" transform="translate(1089.5625,-0.375)"/>
<path d="M0 0 C0.65693848 0.21962402 1.31387695 0.43924805 1.99072266 0.66552734 C15.65128108 5.38377937 27.19783209 12.45150182 38 22 C38.63550781 22.55171875 39.27101563 23.1034375 39.92578125 23.671875 C55.53267342 38.16655187 66.12334634 62.10696753 67.16113281 83.28881836 C67.1989129 86.48365179 67.23114136 89.67823278 67.24023438 92.87329102 C67.24982727 94.90098931 67.28084804 96.92762184 67.3125 98.95507812 C67.49980014 121.99930903 60.07153451 144.35837223 45 162 C44.35675781 162.79921875 43.71351563 163.5984375 43.05078125 164.421875 C27.46643887 182.97329181 3.69119041 193.10878076 -20 196 C-50.32356814 198.05379653 -78.73970361 192.99816366 -102.625 173.09375 C-122.52340243 155.55173733 -134.12483231 131.46069966 -136 105 C-137.45006529 78.47783814 -131.81977048 51.05341572 -114.17578125 30.39453125 C-113.45777344 29.60433594 -112.73976563 28.81414063 -112 28 C-111.18917969 27.09636719 -110.37835937 26.19273438 -109.54296875 25.26171875 C-82.85369762 -2.99061365 -36.53924801 -12.36669867 0 0 Z M-75.70703125 56.98828125 C-86.29683226 70.89754288 -90.27012157 87.17572826 -88.375 104.5 C-85.92693744 120.24217714 -78.95138217 133.48816523 -66 143 C-51.57778124 151.84685623 -35.05158525 153.92433395 -18.68359375 150.1484375 C-4.84984839 145.83547765 5.28659663 138.35734931 13 126 C14.97816001 122.08852491 16.5783365 118.14412032 18 114 C18.24621094 113.29875 18.49242187 112.5975 18.74609375 111.875 C23.0446512 96.69664543 20.17973894 78.55528225 12.84765625 64.91796875 C5.1799622 52.80852381 -5.97522431 44.33923231 -20 41 C-40.32722491 36.89990634 -61.21124008 41.54659832 -75.70703125 56.98828125 Z " fill="#93C01F" transform="translate(1863,4)"/>
<path d="M0 0 C101.46176862 0 101.46176862 0 113.375 6.5625 C114.02654053 6.90764648 114.67808105 7.25279297 115.34936523 7.60839844 C127.88046807 14.55211999 136.60798605 24.71074608 140.9375 38.4375 C144.01833962 51.61664725 142.10436811 64.54308232 135 76 C130.51064291 82.04669296 125.65774938 86.47635073 119 90 C120.37671875 90.63615234 120.37671875 90.63615234 121.78125 91.28515625 C135.13480764 97.59874015 144.24010109 105.10275492 149.875 119.3125 C154.78964763 135.4216228 152.39720763 151.52588553 144.65625 166.2109375 C136.35261978 180.19393745 121.91411236 187.43838529 106.60546875 191.421875 C100.42173389 192.79397809 94.63197316 193.13884717 88.32275391 193.11352539 C86.8645778 193.11370619 86.8645778 193.11370619 85.37694359 193.11389065 C82.24345961 193.11314679 79.11003578 193.10554258 75.9765625 193.09765625 C74.03670277 193.0961852 72.09684263 193.09516549 70.15698242 193.09460449 C62.97964888 193.08937052 55.80232384 193.07540927 48.625 193.0625 C24.555625 193.0315625 24.555625 193.0315625 0 193 C0 129.31 0 65.62 0 0 Z M47 39 C47 51.21 47 63.42 47 76 C55.229375 76.0928125 55.229375 76.0928125 63.625 76.1875 C65.34541504 76.21481201 67.06583008 76.24212402 68.83837891 76.27026367 C70.21776632 76.27903398 71.59716156 76.28667663 72.9765625 76.29296875 C74.03170044 76.3159906 74.03170044 76.3159906 75.1081543 76.33947754 C80.63880325 76.34238535 84.56154702 75.01120267 88.828125 71.4921875 C92.72188788 67.06356708 94.82958012 62.9747205 95 57 C94.236293 50.58916379 91.30222814 46.66847851 86.62109375 42.41015625 C78.48203398 38.03131784 68.84599865 38.75111843 59.875 38.875 C53.501875 38.936875 53.501875 38.936875 47 39 Z M47 111 C47 125.19 47 139.38 47 154 C56.343125 154.1546875 56.343125 154.1546875 65.875 154.3125 C67.82003418 154.35802002 69.76506836 154.40354004 71.76904297 154.45043945 C84.64255669 154.65375109 84.64255669 154.65375109 96 149 C98.5203963 146.60422071 98.5203963 146.60422071 100 144 C100.35320312 143.43023437 100.70640625 142.86046875 101.0703125 142.2734375 C103.2990063 136.82343839 102.98617979 129.29473702 101.3125 123.703125 C98.67745234 118.7404519 94.46637608 115.23318804 89.5 112.75 C84.01830898 111.10549269 78.66397625 110.86097956 72.9765625 110.90234375 C72.31422607 110.90335083 71.65188965 110.90435791 70.96948242 110.90539551 C68.52130372 110.91058411 66.07314992 110.92454501 63.625 110.9375 C58.13875 110.958125 52.6525 110.97875 47 111 Z " fill="#5E6168" transform="translate(1219,3)"/>
<path d="M0 0 C46.53 0 93.06 0 141 0 C141 14.85 141 29.7 141 45 C109.98 45 78.96 45 47 45 C47 55.23 47 65.46 47 76 C71.42 76 95.84 76 121 76 C121 89.53 121 103.06 121 117 C96.58 117 72.16 117 47 117 C47 128.22 47 139.44 47 151 C78.68 151 110.36 151 143 151 C143 165.52 143 180.04 143 195 C95.81 195 48.62 195 0 195 C0 130.65 0 66.3 0 0 Z " fill="#757B7D" transform="translate(645,3)"/>
<path d="M0 0 C15.51 0 31.02 0 47 0 C47.33 23.43 47.66 46.86 48 71 C54.59107026 64.40892974 60.69042377 57.81578745 66.58827496 50.64426517 C73.25029082 42.5561275 80.13678326 34.69470238 87.25 27 C87.84301533 26.35786938 88.43603065 25.71573875 89.04701614 25.05414963 C103.63653462 9.40201934 116.69174708 -2.95609243 138.88375854 -3.82681274 C151.65629516 -4.03779408 164.48916638 -2.47639708 177 0 C173.43638736 4.2457192 169.7977311 8.31895684 165.84765625 12.21484375 C165.38443466 12.67427872 164.92121307 13.13371368 164.44395447 13.60707092 C162.49913834 15.53583973 160.5483152 17.45848735 158.59790039 19.3815918 C157.1581422 20.80299374 155.72161228 22.22760588 154.28515625 23.65234375 C153.01490601 24.90519165 153.01490601 24.90519165 151.71899414 26.18334961 C149.67544237 28.30029822 147.75327724 30.42671008 145.84130859 32.65649414 C141.2324966 37.96797468 136.23737756 42.88733745 131.25390625 47.84375 C130.23235953 48.86342709 129.21103674 49.88332856 128.18992615 50.90344238 C125.52733563 53.56225061 122.86175401 56.21803958 120.19549561 58.87316895 C117.46507329 61.59328393 114.73754926 64.31630185 112.00976562 67.0390625 C106.675978 72.36218863 101.33902084 77.68212218 96 83 C98.17901192 86.91120563 100.30175044 90.62397298 103.1015625 94.12890625 C103.66858887 94.84602783 104.23561523 95.56314941 104.81982422 96.30200195 C105.41553223 97.04796631 106.01124023 97.79393066 106.625 98.5625 C111.25264696 104.43082376 115.73874033 110.34018045 120.02978516 116.45922852 C123.88136257 121.91239822 127.93773763 127.20272349 132 132.5 C136.82680572 138.79600298 141.57409552 145.12103948 146.1328125 151.61328125 C149.95193282 157.01316329 153.97677897 162.25126969 158 167.5 C162.71550967 173.65883013 167.41080409 179.82551735 171.9375 186.125 C172.54754883 186.96708008 172.54754883 186.96708008 173.16992188 187.82617188 C174.87585688 190.22410873 176.06144125 192.18432375 177 195 C169.246314 195.40817399 161.49541953 195.68682456 153.73339844 195.87890625 C151.09823142 195.95901429 148.46376789 196.06794947 145.83105469 196.20703125 C124.60117152 197.29986399 124.60117152 197.29986399 118.68405151 193.52093506 C114.85994755 189.87614165 112.33740111 185.63191116 109.99053955 180.93444824 C108.72319847 178.4594277 107.14361435 176.32584135 105.44140625 174.1328125 C104.48025709 172.79796366 103.52058844 171.46204737 102.5625 170.125 C101.46875756 168.60546331 100.37500733 167.08593222 99.28125 165.56640625 C98.18747948 164.04428558 97.09372938 162.52215023 96 161 C88.64420396 150.77446391 81.24791368 140.58179953 73.75610352 130.45532227 C70.46145813 125.99939784 67.2080119 121.51874811 64 117 C57.11550899 120.17777776 51.24102899 123.93203519 48 131 C45.94126288 140.93757973 46.50985161 151.38939621 46.71246338 161.49194336 C46.78641409 165.94052956 46.7699972 170.38963462 46.76914978 174.8387146 C46.7777779 181.56200872 46.89939036 188.27463266 47 195 C31.49 195 15.98 195 0 195 C0 130.65 0 66.3 0 0 Z " fill="#757B7D" transform="translate(4,3)"/>
<path d="M0 0 C46.53 0 93.06 0 141 0 C141 14.52 141 29.04 141 44 C109.98 44 78.96 44 47 44 C47 54.56 47 65.12 47 76 C69.77 76 92.54 76 116 76 C116 89.2 116 102.4 116 116 C93.23 116 70.46 116 47 116 C47 127.22 47 138.44 47 150 C78.35 150 109.7 150 142 150 C142 164.19 142 178.38 142 193 C95.14 193 48.28 193 0 193 C0 129.31 0 65.62 0 0 Z " fill="#5E6168" transform="translate(1395,3)"/>
<path d="M0 0 C52.05320548 -4.6982463 52.05320548 -4.6982463 62.20605469 2.40966797 C68.42074939 8.1328797 71.12069274 16.41188322 73.65039062 24.25732422 C75.77060471 30.13700618 79.11532634 35.07399371 82.5625 40.25 C83.63235924 41.95976639 84.69686189 43.67290642 85.75390625 45.390625 C86.50241098 46.5938702 87.25102532 47.79704727 88 49 C90.9080099 46.27987452 92.70421248 43.35735128 94.70556641 39.94238281 C95.72416788 38.22066104 96.77682605 36.51877878 97.85693359 34.83496094 C101.14592848 29.61869808 103.48606488 24.79684953 105.30859375 18.89453125 C107.82593759 11.97594132 110.38413709 5.2098582 116.71740723 1.00769043 C133.00228256 -6.18155209 159.67795644 -1.44712164 177 0 C175.77027612 3.14896408 174.54265072 5.92731436 172.63671875 8.72265625 C171.93518677 9.76135864 171.93518677 9.76135864 171.21948242 10.82104492 C170.71392822 11.5607251 170.20837402 12.30040527 169.6875 13.0625 C168.5927166 14.68419868 167.4990034 16.30662025 166.40625 17.9296875 C165.84164062 18.76725586 165.27703125 19.60482422 164.6953125 20.46777344 C161.98576191 24.51493052 159.33513367 28.59966776 156.6875 32.6875 C155.59507086 34.37240801 154.50262258 36.05730361 153.41015625 37.7421875 C152.57701904 39.02754395 152.57701904 39.02754395 151.72705078 40.33886719 C148.70083177 45.00182834 145.66260054 49.65694844 142.625 54.3125 C142.0074585 55.25939697 141.38991699 56.20629395 140.75366211 57.18188477 C137.44515338 62.25447476 134.13408003 67.32537502 130.8203125 72.39453125 C129.7981665 73.95917114 129.7981665 73.95917114 128.75537109 75.55541992 C127.44917655 77.5547849 126.14224737 79.55367019 124.83447266 81.55200195 C123.94961182 82.90684692 123.94961182 82.90684692 123.046875 84.2890625 C122.52963867 85.08006348 122.01240234 85.87106445 121.47949219 86.68603516 C118.24863699 91.15928434 118.24863699 91.15928434 116.9765625 96.296875 C118.51366277 100.35669709 120.90803849 103.69728569 123.375 107.25 C124.47630284 108.86778044 125.57653952 110.48628713 126.67578125 112.10546875 C127.23346191 112.92321777 127.79114258 113.7409668 128.36572266 114.58349609 C130.81776026 118.20917105 133.19431204 121.88170841 135.5625 125.5625 C136.01157715 126.25891602 136.4606543 126.95533203 136.92333984 127.67285156 C137.82968043 129.07867062 138.7356064 130.48475708 139.64111328 131.89111328 C141.92201629 135.43089772 144.21144042 138.96516297 146.5 142.5 C147.41931802 143.92054238 148.3385889 145.34111527 149.2578125 146.76171875 C149.71188477 147.46345215 150.16595703 148.16518555 150.63378906 148.88818359 C151.98278877 150.9733958 153.33130433 153.05892032 154.6796875 155.14453125 C155.57809743 156.533872 156.476535 157.92319486 157.375 159.3125 C157.81779297 159.99731445 158.26058594 160.68212891 158.71679688 161.38769531 C161.29706307 165.37588136 163.88393407 169.35968163 166.4765625 173.33984375 C167.06260254 174.23985107 167.64864258 175.1398584 168.25244141 176.06713867 C169.39194835 177.81651585 170.53221175 179.56540058 171.67333984 181.3137207 C179 192.56237903 179 192.56237903 179 195 C171.79620195 195.5135928 164.59641988 195.90234469 157.37792683 196.13986778 C154.02076733 196.25410385 150.68564494 196.41984954 147.33374023 196.65966797 C125.73557739 198.16529945 125.73557739 198.16529945 119.55917358 192.93179321 C115.3818621 187.73951235 112.74650555 181.99350184 110.25584412 175.85266113 C108.22390071 171.23708354 105.46826691 167.12930885 102.6875 162.9375 C101.70444082 161.40009081 100.72360122 159.8612575 99.74609375 158.3203125 C99.05362549 157.23411621 99.05362549 157.23411621 98.34716797 156.12597656 C95.17460963 151.11933683 92.08809297 146.05902289 89 141 C86.33483256 143.42465968 84.60024435 146.06394919 82.734375 149.13671875 C82.09830322 150.17836182 81.46223145 151.22000488 80.80688477 152.29321289 C79.78872681 153.97338501 79.78872681 153.97338501 78.75 155.6875 C77.68293612 157.43707655 76.61415389 159.18559488 75.54518127 160.93400574 C74.8102463 162.1360657 74.07574393 163.33839025 73.34165955 164.54096985 C69.45412055 170.90582088 65.5143187 177.23737428 61.5625 183.5625 C60.91829102 184.59656982 60.27408203 185.63063965 59.61035156 186.69604492 C59.01834961 187.64326416 58.42634766 188.5904834 57.81640625 189.56640625 C57.29506104 190.40115479 56.77371582 191.23590332 56.23657227 192.09594727 C55 194 55 194 54 195 C52.2507128 195.09365006 50.49763746 195.11744438 48.74584961 195.11352539 C47.62476303 195.11344986 46.50367645 195.11337433 45.34861755 195.11329651 C43.51896202 195.10555458 43.51896202 195.10555458 41.65234375 195.09765625 C40.41078018 195.0962413 39.16921661 195.09482635 37.89002991 195.09336853 C34.58394509 195.08870591 31.27792854 195.07971497 27.97186279 195.06866455 C24.6003885 195.05844827 21.22890717 195.05387045 17.85742188 195.04882812 C11.23826225 195.03777395 4.61913507 195.02101736 -2 195 C-1.21068158 191.49884031 0.04108338 189.0831862 2 186.0546875 C2.94709839 184.58225586 2.94709839 184.58225586 3.91333008 183.08007812 C4.60193115 182.02240234 5.29053223 180.96472656 6 179.875 C7.0667395 178.22274414 7.0667395 178.22274414 8.1550293 176.53710938 C10.42788941 173.01899456 12.71262503 169.50868995 15 166 C15.55859711 165.1427533 15.55859711 165.1427533 16.128479 164.26818848 C20.10949423 158.1600611 24.10078567 152.05870357 28.09765625 145.9609375 C31.33129647 141.02599608 34.54898775 136.08115665 37.75 131.125 C41.8038817 124.84854776 45.86669349 118.57799231 49.9375 112.3125 C50.48180664 111.47412598 51.02611328 110.63575195 51.58691406 109.77197266 C52.10350586 108.97710449 52.62009766 108.18223633 53.15234375 107.36328125 C53.63815918 106.60869629 54.12397461 105.85411133 54.62451172 105.07666016 C55.48212011 103.78187547 56.37005555 102.50608345 57.30126953 101.26318359 C59.02660517 98.94377092 59.99540716 97.48071708 60.0234375 94.546875 C58.65288343 91.1361832 56.72242174 88.24258058 54.625 85.25 C53.70327436 83.90182904 52.7827432 82.55284082 51.86328125 81.203125 C51.38713379 80.50767578 50.91098633 79.81222656 50.42041016 79.09570312 C48.16327727 75.76548162 45.98794009 72.38392816 43.8125 69 C37.56794672 59.31635248 31.26850655 49.66876874 24.97021484 40.02001953 C22.97458093 36.9610367 20.98112445 33.90064527 18.98828125 30.83984375 C18.00758667 29.33417847 18.00758667 29.33417847 17.00708008 27.7980957 C15.72655744 25.83205536 14.44643637 23.86575341 13.16674805 21.89916992 C9.25123446 15.89034842 5.28629672 9.92168419 1.22265625 4.01171875 C0 2 0 2 0 0 Z " fill="#5E6167" transform="translate(809,3)"/>
<path d="M0 0 C54.45 0 108.9 0 165 0 C165 14.52 165 29.04 165 44 C145.53 44 126.06 44 106 44 C106 93.17 106 142.34 106 193 C90.49 193 74.98 193 59 193 C59 143.83 59 94.66 59 44 C39.53 44 20.06 44 0 44 C0 29.48 0 14.96 0 0 Z " fill="#5E6168" transform="translate(1560,3)"/>
<path d="M0 0 C3.44481521 0.1337466 6.89085357 0.19251505 10.33752441 0.25787354 C17.08292378 0.40087447 23.82282833 0.61810632 30.56408691 0.89263916 C29.33436304 4.04160324 28.10673763 6.81995352 26.20080566 9.61529541 C25.73311768 10.30776367 25.26542969 11.00023193 24.78356934 11.71368408 C24.27801514 12.45336426 23.77246094 13.19304443 23.25158691 13.95513916 C22.15680352 15.57683784 21.06309032 17.19925941 19.97033691 18.82232666 C19.40572754 19.65989502 18.84111816 20.49746338 18.25939941 21.3604126 C15.54984882 25.40756968 12.89922058 29.49230692 10.25158691 33.58013916 C9.15915778 35.26504717 8.0667095 36.94994277 6.97424316 38.63482666 C6.41881836 39.49173096 5.86339355 40.34863525 5.2911377 41.23150635 C2.26491868 45.8944675 -0.77331254 50.5495876 -3.81091309 55.20513916 C-4.42845459 56.15203613 -5.04599609 57.09893311 -5.68225098 58.07452393 C-8.99075971 63.14711392 -12.30183305 68.21801418 -15.61560059 73.28717041 C-16.29703125 74.33026367 -16.97846191 75.37335693 -17.68054199 76.44805908 C-18.98673653 78.44742406 -20.29366572 80.44630935 -21.60144043 82.44464111 C-22.19134766 83.34787109 -22.78125488 84.25110107 -23.38903809 85.18170166 C-24.16489258 86.36820313 -24.16489258 86.36820313 -24.9564209 87.57867432 C-28.18727609 92.0519235 -28.18727609 92.0519235 -29.45935059 97.18951416 C-27.92225031 101.24933625 -25.52787459 104.58992485 -23.06091309 108.14263916 C-21.95961024 109.7604196 -20.85937357 111.37892629 -19.76013184 112.99810791 C-19.20245117 113.81585693 -18.64477051 114.63360596 -18.07019043 115.47613525 C-15.61815283 119.10181021 -13.24160104 122.77434757 -10.87341309 126.45513916 C-10.19979736 127.49976318 -10.19979736 127.49976318 -9.51257324 128.56549072 C-8.60623266 129.97130978 -7.70030669 131.37739624 -6.7947998 132.78375244 C-4.51389679 136.32353689 -2.22447267 139.85780213 0.06408691 143.39263916 C0.98340494 144.81318154 1.90267582 146.23375443 2.82189941 147.65435791 C3.27597168 148.35609131 3.73004395 149.05782471 4.19787598 149.78082275 C5.54687569 151.86603496 6.89539124 153.95155948 8.24377441 156.03717041 C9.14218434 157.42651116 10.04062192 158.81583402 10.93908691 160.20513916 C11.60327637 161.23236084 11.60327637 161.23236084 12.28088379 162.28033447 C14.86114998 166.26852052 17.44802098 170.25232079 20.04064941 174.23248291 C20.62668945 175.13249023 21.21272949 176.03249756 21.81652832 176.95977783 C22.95603526 178.70915501 24.09629866 180.45803974 25.23742676 182.20635986 C32.56408691 193.45501819 32.56408691 193.45501819 32.56408691 195.89263916 C25.36028886 196.40623196 18.1605068 196.79498385 10.94201374 197.03250694 C7.58485424 197.14674301 4.24973185 197.3124887 0.89782715 197.55230713 C-20.70227118 199.05807354 -20.70227118 199.05807354 -26.87774658 193.82241821 C-31.05597948 188.62717459 -33.69394226 182.87874744 -36.18511963 176.73484802 C-38.19707859 172.16302399 -40.93272069 168.10686038 -43.68591309 163.95513916 C-44.66105767 162.40673855 -45.63293244 160.8562686 -46.59997559 159.30279541 C-48.44522247 156.38465653 -50.37280266 153.56041574 -52.39685059 150.76373291 C-52.8477002 150.10816406 -53.2985498 149.45259521 -53.76306152 148.77716064 C-54.59660959 147.56682251 -55.46510431 146.37943651 -56.37438965 145.22491455 C-57.47497559 143.58013916 -57.47497559 143.58013916 -58.43591309 139.89263916 C-57.02304849 135.86634109 -54.7456091 132.4608639 -52.43591309 128.89263916 C-51.11926148 126.72170192 -49.8042047 124.54979676 -48.49060059 122.37701416 C-47.10024082 120.13044414 -45.70697843 117.88566807 -44.31091309 115.64263916 C-38.21824214 105.85988459 -38.21824214 105.85988459 -32.43591309 95.89263916 C-40.90098648 81.43103591 -49.55194687 67.10083248 -58.43591309 52.89263916 C-53.93870787 44.41804958 -49.064595 36.19921505 -44.06091309 28.01763916 C-42.97585532 26.23664444 -41.89149479 24.45529226 -40.81170654 22.6710968 C-40.08657886 21.48962332 -39.34714647 20.3168124 -38.59381104 19.15312195 C-36.65964679 16.13177714 -35.32956393 13.58210367 -34.1517334 10.1428833 C-28.51081239 -4.17705337 -13.02714864 -0.55910343 0 0 Z " fill="#92BF1F" transform="translate(955.4359130859375,2.10736083984375)"/>
<path d="M0 0 C52.05320548 -4.6982463 52.05320548 -4.6982463 62.20605469 2.40966797 C68.42719003 8.13906633 71.13611175 16.43788646 73.66796875 24.29248047 C75.71786351 29.99807097 78.94591622 34.74626392 82.3125 39.75 C85.00274273 43.98024034 87.65882963 48.17902211 89.828125 52.703125 C92.90861511 59.04850907 96.75691828 64.99075911 100.4375 71 C101.19624469 72.24462032 101.95471012 73.48941092 102.71289062 74.734375 C105.78073529 79.76559677 108.85642943 84.78764802 112.03515625 89.75 C114 93 114 93 114 95 C106.63679581 95.38215824 99.27616208 95.64369263 91.90527344 95.82397461 C89.40202327 95.89914971 86.89942632 96.00133196 84.3984375 96.1315918 C64.23466352 97.15503176 64.23466352 97.15503176 58.94723511 93.63238525 C55.61457429 90.20375824 53.63510235 86.23960567 51.80749512 81.86087036 C50.72096597 79.35696682 49.26373343 77.2040696 47.70703125 74.96875 C46.74132682 73.4797245 45.77648718 71.99013781 44.8125 70.5 C43.70199329 68.78764991 42.59130892 67.07541503 41.48046875 65.36328125 C40.91247559 64.48752441 40.34448242 63.61176758 39.75927734 62.70947266 C36.09636137 57.06819573 32.41873025 51.43650564 28.74316406 45.8034668 C25.49205119 40.82085576 22.24231299 35.83736359 18.99609375 30.8515625 C18.34116943 29.84609375 17.68624512 28.840625 17.01147461 27.8046875 C15.72930395 25.83621906 14.44755389 23.86747659 13.16625977 21.8984375 C9.25092308 15.88985116 5.28613027 9.92144211 1.22265625 4.01171875 C0 2 0 2 0 0 Z " fill="#747A7C" transform="translate(809,3)"/>
<path d="M0 0 C3.44481521 0.1337466 6.89085357 0.19251505 10.33752441 0.25787354 C17.08292378 0.40087447 23.82282833 0.61810632 30.56408691 0.89263916 C29.33436304 4.04160324 28.10673763 6.81995352 26.20080566 9.61529541 C25.73311768 10.30776367 25.26542969 11.00023193 24.78356934 11.71368408 C24.27801514 12.45336426 23.77246094 13.19304443 23.25158691 13.95513916 C22.15680352 15.57683784 21.06309032 17.19925941 19.97033691 18.82232666 C19.40572754 19.65989502 18.84111816 20.49746338 18.25939941 21.3604126 C15.54984882 25.40756968 12.89922058 29.49230692 10.25158691 33.58013916 C9.15915778 35.26504717 8.0667095 36.94994277 6.97424316 38.63482666 C6.41881836 39.49173096 5.86339355 40.34863525 5.2911377 41.23150635 C2.26491887 45.89446722 -0.77321659 50.5496505 -3.81091309 55.20513916 C-5.06482073 57.12701325 -6.31872697 59.04888826 -7.57263184 60.97076416 C-8.20217773 61.93562744 -8.83172363 62.90049072 -9.48034668 63.89459229 C-11.51454616 67.01319024 -13.54762544 70.13251613 -15.58044434 73.25201416 C-16.25736328 74.2905957 -16.93428223 75.32917725 -17.63171387 76.39923096 C-18.9258929 78.38491849 -20.2198507 80.37075024 -21.5135498 82.35675049 C-22.65641579 84.10997158 -23.80142203 85.86180037 -24.94909668 87.61187744 C-25.87000789 89.02454616 -26.78120419 90.44366452 -27.67663574 91.87261963 C-28.54677602 93.24536512 -29.4829607 94.57603139 -30.43591309 95.89263916 C-31.09591309 95.89263916 -31.75591309 95.89263916 -32.43591309 95.89263916 C-33.65002441 94.20635986 -33.65002441 94.20635986 -35.01794434 91.81842041 C-35.53203857 90.93235107 -36.04613281 90.04628174 -36.57580566 89.13336182 C-37.12776611 88.16704834 -37.67972656 87.20073486 -38.24841309 86.20513916 C-39.41312508 84.19749349 -40.57984934 82.19101409 -41.74841309 80.18560791 C-42.35169434 79.14968506 -42.95497559 78.11376221 -43.57653809 77.04644775 C-46.5578364 71.98967101 -49.64693887 67.00133377 -52.74841309 62.01763916 C-53.31729248 61.10280762 -53.88617187 60.18797607 -54.47229004 59.24542236 C-55.79160364 57.12663618 -57.11264258 55.00895553 -58.43591309 52.89263916 C-53.93870787 44.41804958 -49.064595 36.19921505 -44.06091309 28.01763916 C-42.97585532 26.23664444 -41.89149479 24.45529226 -40.81170654 22.6710968 C-40.08657886 21.48962332 -39.34714647 20.3168124 -38.59381104 19.15312195 C-36.65964679 16.13177714 -35.32956393 13.58210367 -34.1517334 10.1428833 C-28.51081239 -4.17705337 -13.02714864 -0.55910343 0 0 Z " fill="#BACF40" transform="translate(955.4359130859375,2.10736083984375)"/>
<path d="M0 0 C2.31 0 4.62 0 7 0 C9.08203125 2.24609375 9.08203125 2.24609375 10.8125 5.4375 C11.47521779 6.61721145 12.13798064 7.79689758 12.80078125 8.9765625 C13.14834473 9.61754883 13.4959082 10.25853516 13.85400391 10.91894531 C15.5423064 13.98479329 17.33667167 16.9853928 19.1237793 19.99438477 C21.09835571 23.32037431 23.04831427 26.66053774 25 30 C26.12750768 28.1890589 27.25176877 26.37609666 28.375 24.5625 C28.73005615 23.99571533 29.0851123 23.42893066 29.45092773 22.8449707 C31.58848138 19.40264656 33.60087285 15.92526503 35.51171875 12.3515625 C35.93598145 11.5773999 36.36024414 10.8032373 36.79736328 10.00561523 C37.63123547 8.47770779 38.4440764 6.93810558 39.23388672 5.38696289 C39.81614014 4.33496704 39.81614014 4.33496704 40.41015625 3.26171875 C40.74152588 2.63225342 41.07289551 2.00278809 41.41430664 1.35424805 C43 0 43 0 50 0 C50 17.82 50 35.64 50 54 C47.69 54 45.38 54 43 54 C42.67 41.79 42.34 29.58 42 17 C37.59701622 24.8869632 37.59701622 24.8869632 33.2355957 32.796875 C32.67960693 33.77140625 32.12361816 34.7459375 31.55078125 35.75 C30.99044189 36.75546875 30.43010254 37.7609375 29.8527832 38.796875 C28 41 28 41 25.37084961 41.41601562 C23 41 23 41 21.515625 39.59375 C16.8183143 31.82289032 12.46092147 23.93052705 8 16 C7.67 28.54 7.34 41.08 7 54 C4.69 54 2.38 54 0 54 C0 36.18 0 18.36 0 0 Z " fill="#5E6168" transform="translate(90,284)"/>
<path d="M0 0 C2.31 0 4.62 0 7 0 C9.01635742 2.10791016 9.01635742 2.10791016 10.60546875 5.0390625 C11.19650391 6.09480469 11.78753906 7.15054687 12.39648438 8.23828125 C12.98751953 9.35589844 13.57855469 10.47351563 14.1875 11.625 C15.38810861 13.8053566 16.58989737 15.98506384 17.79296875 18.1640625 C18.3139917 19.13811035 18.83501465 20.1121582 19.37182617 21.11572266 C21.1108352 24.19634234 23.00582067 27.07974879 25 30 C25.43868408 29.23333008 25.87736816 28.46666016 26.3293457 27.67675781 C27.96541702 24.82039318 29.60385622 21.96541435 31.24389648 19.11132812 C31.95187533 17.8781477 32.65891892 16.64442984 33.36499023 15.41015625 C34.3827694 13.63137378 35.40394807 11.85458098 36.42578125 10.078125 C37.03848877 9.00981445 37.65119629 7.94150391 38.2824707 6.84082031 C38.84925537 5.90334961 39.41604004 4.96587891 40 4 C40.42434326 3.21463867 40.84868652 2.42927734 41.28588867 1.62011719 C43 0 43 0 50 0 C50 17.82 50 35.64 50 54 C47.69 54 45.38 54 43 54 C42.67 41.46 42.34 28.92 42 16 C37.43592242 23.85240654 37.43592242 23.85240654 32.87524414 31.70678711 C32.30926514 32.6788208 31.74328613 33.65085449 31.16015625 34.65234375 C30.57886963 35.65257568 29.99758301 36.65280762 29.39868164 37.68334961 C28 40 28 40 27 41 C24.65942383 41.390625 24.65942383 41.390625 22 41 C20.1472168 38.796875 20.1472168 38.796875 18.44921875 35.75 C17.89322998 34.77546875 17.33724121 33.8009375 16.7644043 32.796875 C15.73633667 30.91742188 15.73633667 30.91742188 14.6875 29 C11.3771875 23.06 11.3771875 23.06 8 17 C7.67 29.21 7.34 41.42 7 54 C4.69 54 2.38 54 0 54 C0 36.18 0 18.36 0 0 Z " fill="#5E6168" transform="translate(1646,284)"/>
<path d="M0 0 C8 0 8 0 9.97119141 1.44262695 C10.42671387 2.11769287 10.88223633 2.79275879 11.3515625 3.48828125 C12.15364136 4.62934326 12.15364136 4.62934326 12.97192383 5.79345703 C13.51743896 6.62474121 14.0629541 7.45602539 14.625 8.3125 C15.82866209 10.04610431 17.03311389 11.77916054 18.23828125 13.51171875 C18.8513916 14.41196777 19.46450195 15.3122168 20.09619141 16.23974609 C23.22792895 20.78032377 26.52509288 25.19656917 29.8125 29.625 C31.48293618 31.89787033 33.15328771 34.17080275 34.82348633 36.44384766 C35.91223788 37.95810606 35.91223788 37.95810606 37 39 C37.33 26.13 37.66 13.26 38 0 C40.31 0 42.62 0 45 0 C45 17.82 45 35.64 45 54 C38 54 38 54 35.69921875 52.0859375 C35.03535156 51.19132812 34.37148437 50.29671875 33.6875 49.375 C32.92695313 48.36824219 32.16640625 47.36148438 31.3828125 46.32421875 C30.58638066 45.21769805 29.79214999 44.10959008 29 43 C28.1852402 41.88125954 27.37013242 40.76277243 26.5546875 39.64453125 C24.00350708 36.11942548 21.50575635 32.55755531 19 29 C15.7 24.38 12.4 19.76 9 15 C8.67 27.87 8.34 40.74 8 54 C5.36 54 2.72 54 0 54 C0 36.18 0 18.36 0 0 Z " fill="#5E6168" transform="translate(2086,284)"/>
<path d="M0 0 C7 0 7 0 8.87353516 1.36669922 C9.34065918 2.00623535 9.8077832 2.64577148 10.2890625 3.3046875 C10.83199951 4.0251123 11.37493652 4.74553711 11.93432617 5.48779297 C12.49224854 6.27557129 13.0501709 7.06334961 13.625 7.875 C14.21966064 8.67695801 14.81432129 9.47891602 15.42700195 10.30517578 C17.30795952 12.85398621 19.1552075 15.42492679 21 18 C22.22920426 19.6884213 23.45965151 21.37593845 24.69140625 23.0625 C27.37843157 26.75301545 30.04295519 30.45865725 32.68823242 34.17919922 C34.09966077 36.13833427 35.55123416 38.06831222 37 40 C37 26.8 37 13.6 37 0 C39.64 0 42.28 0 45 0 C45 17.82 45 35.64 45 54 C37 54 37 54 35.02880859 52.55737305 C34.57328613 51.88230713 34.11776367 51.20724121 33.6484375 50.51171875 C33.11371826 49.75109131 32.57899902 48.99046387 32.02807617 48.20678711 C31.48256104 47.37542236 30.9370459 46.54405762 30.375 45.6875 C29.17142567 43.95253312 27.96697113 42.21817659 26.76171875 40.484375 C26.1486084 39.58396484 25.53549805 38.68355469 24.90380859 37.75585938 C21.77885443 33.23232993 18.47560055 28.84304429 15.1875 24.4375 C14.01211378 22.85450249 12.83875298 21.26999791 11.66796875 19.68359375 C11.17578857 19.01900146 10.6836084 18.35440918 10.17651367 17.66967773 C9 16 9 16 8 14 C7.67 27.2 7.34 40.4 7 54 C4.69 54 2.38 54 0 54 C0 36.18 0 18.36 0 0 Z " fill="#5E6168" transform="translate(855,284)"/>
<path d="M0 0 C7.78122712 4.41118861 11.42603652 9.87967207 14.21875 18.2578125 C14.9339642 29.08230427 14.48682012 36.53565261 7.59375 45.0078125 C1.77805767 51.08594582 -3.16310689 53.31833997 -11.61352539 53.77514648 C-20.44729201 53.96466832 -27.14313965 52.39331393 -33.8359375 46.42578125 C-40.98430845 38.90664417 -42.38082493 31.91605764 -42.12890625 21.6640625 C-41.34032677 13.93775568 -37.61744639 7.37611685 -31.78125 2.2578125 C-21.95942076 -3.87384181 -10.62985579 -4.93529019 0 0 Z M-31.3671875 13.16015625 C-35.14784585 18.76848093 -35.08885077 24.18547152 -34.31640625 30.67578125 C-33.00152418 37.01984731 -28.72084346 40.5531174 -23.78125 44.2578125 C-18.8087448 47.28594067 -13.41350928 46.95913362 -7.78125 46.2578125 C-2.12781874 44.10192136 1.86425004 40.19090068 5.21875 35.2578125 C7.84747718 29.04445734 7.82493445 22.56038949 5.46484375 16.23828125 C2.67095348 10.87260914 -1.18479279 7.44315166 -6.65625 4.9453125 C-16.98578467 2.67281487 -24.75294866 4.83950419 -31.3671875 13.16015625 Z " fill="#5E6168" transform="translate(1581.78125,285.7421875)"/>
<path d="M0 0 C6.98590601 7.31083187 9.07330436 14.75051303 8.96484375 24.64453125 C8.26650418 32.62133961 4.6452443 39.49156922 -1.3125 44.8125 C-9.33008549 50.51698599 -17.79652552 50.64587455 -27.3125 49.8125 C-34.67316462 47.73442318 -40.15848942 43.18124831 -44.3125 36.8125 C-48.41507 28.73285037 -48.90986396 19.5215971 -46.46875 10.796875 C-43.22158273 3.64433087 -37.79526256 -1.85753858 -30.625 -5.125 C-19.68227733 -8.56475565 -9.31298348 -6.15008343 0 0 Z M-35.6875 8.1875 C-39.5673584 13.16384012 -40.85661376 18.11779098 -40.6875 24.375 C-39.72718177 30.61706851 -36.79081624 36.11523198 -31.6875 39.875 C-25.88905123 43.20373911 -20.879068 43.45029251 -14.3125 42.8125 C-7.63954842 40.84986718 -3.80100846 36.84318271 -0.203125 31.015625 C1.94815094 25.69404768 1.47096297 18.88188975 0.0703125 13.39453125 C-2.2592444 8.06541216 -6.3008295 4.64135308 -11.3125 1.8125 C-20.64006332 -1.1987606 -29.10464204 0.99895535 -35.6875 8.1875 Z " fill="#5E6168" transform="translate(2028.3125,289.1875)"/>
<path d="M0 0 C28.54545455 0 28.54545455 0 34.375 5.0625 C36.74743975 9.35114109 36.92468291 13.20846129 36 18 C34.57211893 20.50496783 33.1198641 21.9861291 31 24 C31.48210938 24.37511719 31.96421875 24.75023437 32.4609375 25.13671875 C37.45558469 29.18340229 39.63463361 31.77259689 40.375 38.3125 C39.75728927 44.3866555 38.03936803 48.33275803 33.28125 52.22265625 C27.43637094 55.35593845 20.48738726 54.4113271 14.0625 54.25 C7.1015625 54.12625 7.1015625 54.12625 0 54 C0 36.18 0 18.36 0 0 Z M7 6 C7 11.28 7 16.56 7 22 C9.51625 22.103125 12.0325 22.20625 14.625 22.3125 C15.40568848 22.35802002 16.18637695 22.40354004 16.99072266 22.45043945 C20.91965254 22.52774132 23.34970996 22.15107109 26.48046875 19.671875 C29.22482407 17.21662021 29.22482407 17.21662021 29.6875 13.9375 C28.78409081 10.07747891 27.30547062 9.07552807 24 7 C18.57364835 5.19121612 12.66885438 5.94799216 7 6 Z M7 28 C7 34.6 7 41.2 7 48 C9.68125 48.061875 12.3625 48.12375 15.125 48.1875 C16.37434326 48.22846802 16.37434326 48.22846802 17.64892578 48.27026367 C22.50273718 48.3241177 25.81697656 47.72722957 30 45 C32.51250583 41.23124125 32.53016086 39.46849866 32 35 C29.98670074 31.52318705 27.88463861 29.29487954 24 28 C22.66474283 27.92026524 21.32587917 27.89228662 19.98828125 27.90234375 C19.30548096 27.90484131 18.62268066 27.90733887 17.91918945 27.90991211 C17.05898193 27.91901611 16.19877441 27.92812012 15.3125 27.9375 C12.569375 27.958125 9.82625 27.97875 7 28 Z " fill="#5E6168" transform="translate(522,284)"/>
<path d="M0 0 C23 0 23 0 31 3 C36.55488439 8.79126245 37.35614026 12.13254766 37.28125 19.94921875 C36.87116542 24.39749731 35.7247613 26.46517453 33 30 C31.3553607 31.36041065 29.69154804 32.69837763 28 34 C28.49983398 34.80219971 28.49983398 34.80219971 29.00976562 35.62060547 C30.51112495 38.03590415 32.00563105 40.45537067 33.5 42.875 C34.02464844 43.71675781 34.54929687 44.55851562 35.08984375 45.42578125 C35.58613281 46.23144531 36.08242188 47.03710938 36.59375 47.8671875 C37.05458984 48.61081543 37.51542969 49.35444336 37.99023438 50.12060547 C39 52 39 52 39 54 C33.99683306 54.77635349 33.99683306 54.77635349 31 54 C27.67766556 50.68550125 25.6615673 46.44011906 23.71875 42.2109375 C22.33344619 39.41616761 21.1793991 37.24141452 19 35 C14.77536712 33.81926927 11.4552134 33.90099526 7 34 C7 40.6 7 47.2 7 54 C4.69 54 2.38 54 0 54 C0 36.18 0 18.36 0 0 Z M7 7 C7 13.93 7 20.86 7 28 C17.4814362 28.63036678 17.4814362 28.63036678 27 25 C29.04231601 22.69415934 29.94559305 21.13801202 30.09375 18.0390625 C29.82678226 14.44834639 29.35195009 12.45753512 27.125 9.5625 C23.06923322 6.58031854 19.12000389 6.87959062 14.3125 6.9375 C11.899375 6.958125 9.48625 6.97875 7 7 Z " fill="#5E6168" transform="translate(288,284)"/>
<path d="M0 0 C4.57774223 2.69896052 7.89760523 6.02229543 9.375 11.25 C9.436875 11.95125 9.49875 12.6525 9.5625 13.375 C7.2525 14.035 4.9425 14.695 2.5625 15.375 C2.0675 14.281875 1.5725 13.18875 1.0625 12.0625 C-1.07264245 8.37656987 -3.16233462 6.91639704 -7.20703125 5.671875 C-11.13264268 5.14937681 -14.77251618 5.93790053 -18.4375 7.375 C-20.73577312 9.25438172 -20.73577312 9.25438172 -20.75 12.3125 C-20.71924693 15.30433587 -20.71924693 15.30433587 -19.19873047 16.96118164 C-17.16252608 18.59573385 -15.42986635 19.26611984 -12.9453125 20.05859375 C-11.64013672 20.49075195 -11.64013672 20.49075195 -10.30859375 20.93164062 C-8.48608389 21.51624372 -6.66317002 22.09958884 -4.83984375 22.68164062 C1.23224376 24.69520583 5.61021036 26.6417945 9.4375 32 C11.00706549 36.70869646 10.82265179 40.59109042 9.5625 45.375 C7.52392452 49.41003164 4.18308316 52.33952351 -0.08984375 53.8984375 C-7.25261057 55.35244341 -15.65476827 56.04288244 -22.125 52.1875 C-26.19743913 49.03578624 -29.02443878 46.19935374 -30.1875 41.0625 C-30.27 40.175625 -30.3525 39.28875 -30.4375 38.375 C-27.79011084 36.9143715 -26.54301666 36.375 -23.4375 36.375 C-23.22996094 36.91769531 -23.02242187 37.46039063 -22.80859375 38.01953125 C-21.09141471 42.00712276 -19.97865734 44.02483937 -16.25 46.4375 C-11.63610721 47.5720638 -8.00208522 47.75459479 -3.4375 46.375 C-0.1835079 44.45588544 -0.1835079 44.45588544 1.5625 41.375 C2.30156245 37.79304672 2.30156245 37.79304672 0.5625 34.375 C-4.22673643 30.78307268 -9.97096986 29.17501052 -15.625 27.4375 C-20.81690299 25.75146965 -25.26023764 24.0029738 -28.4375 19.375 C-29.96484093 14.92092199 -29.8184101 11.49656861 -28.3125 7.0625 C-21.94188935 -2.0687086 -10.09341924 -4.60536239 0 0 Z " fill="#5E6168" transform="translate(1152.4375,284.625)"/>
<path d="M0 0 C4.57774223 2.69896052 7.89760523 6.02229543 9.375 11.25 C9.436875 11.95125 9.49875 12.6525 9.5625 13.375 C7.2525 14.035 4.9425 14.695 2.5625 15.375 C2.0675 14.281875 1.5725 13.18875 1.0625 12.0625 C-1.07264245 8.37656987 -3.16233462 6.91639704 -7.20703125 5.671875 C-11.13264268 5.14937681 -14.77251618 5.93790053 -18.4375 7.375 C-20.62081689 9.13636355 -20.62081689 9.13636355 -20.6328125 11.3203125 C-20.60960937 12.03960937 -20.58640625 12.75890625 -20.5625 13.5 C-20.52125 14.77875 -20.48 16.0575 -20.4375 17.375 C-19.6125 17.64570313 -18.7875 17.91640625 -17.9375 18.1953125 C-14.08326686 19.49439554 -10.25612722 20.85031521 -6.4375 22.25 C-5.75171875 22.49363281 -5.0659375 22.73726563 -4.359375 22.98828125 C1.34939137 25.09093756 6.27961698 27.22306719 9.5 32.625 C11.13732824 38.40380556 10.5881536 42.24164051 8 47.625 C3.81166003 52.35030664 0.27555923 54.08725129 -6.046875 54.7578125 C-14.43407926 55.00644504 -19.64994087 54.74679742 -25.921875 49.01953125 C-29.36025576 45.41695815 -30.14499213 42.25013121 -30.4375 37.375 C-26.9725 36.88 -26.9725 36.88 -23.4375 36.375 C-23.22996094 36.91769531 -23.02242187 37.46039063 -22.80859375 38.01953125 C-21.09141471 42.00712276 -19.97865734 44.02483937 -16.25 46.4375 C-11.63610721 47.5720638 -8.00208522 47.75459479 -3.4375 46.375 C-0.1835079 44.45588544 -0.1835079 44.45588544 1.5625 41.375 C2.05858434 37.76375038 2.05858434 37.76375038 0.5625 34.375 C-3.27800011 31.26602372 -7.24360204 30.09201633 -11.94042969 28.62646484 C-25.17551313 24.47472596 -25.17551313 24.47472596 -28.4375 19.375 C-29.94793522 14.90796816 -29.82208776 11.50739731 -28.3125 7.0625 C-21.94188935 -2.0687086 -10.09341924 -4.60536239 0 0 Z " fill="#5E6168" transform="translate(1066.4375,284.625)"/>
<path d="M0 0 C2.94696813 2.3222652 5.18440798 4.88244146 6.6953125 8.3359375 C6.5078125 11.2734375 6.5078125 11.2734375 5.6953125 13.3359375 C2.7253125 13.8309375 2.7253125 13.8309375 -0.3046875 14.3359375 C-0.9234375 12.94375 -0.9234375 12.94375 -1.5546875 11.5234375 C-3.30430196 8.33663974 -4.14121323 7.00554892 -7.3046875 5.3359375 C-13.1127875 3.80172241 -16.20678181 4.53708732 -21.3046875 7.3359375 C-23.49955434 10.07426552 -23.49955434 10.07426552 -23.4296875 12.7734375 C-21.99451898 16.04243247 -20.13429457 16.87695416 -16.953125 18.3125 C-13.74888998 19.55071471 -10.49957228 20.62051232 -7.2421875 21.7109375 C-1.35243834 23.75844687 2.44079264 25.78459067 6.6953125 30.3359375 C8.33295966 35.24887898 8.5470525 40.25390639 6.5703125 45.0859375 C3.48928244 48.78317357 0.34297549 51.7867165 -4.3046875 53.3359375 C-21.12639025 54.55316629 -21.12639025 54.55316629 -27.3046875 49.3359375 C-30.67037906 45.75830063 -32.85088039 42.32781574 -33.3046875 37.3359375 C-30.9946875 36.6759375 -28.6846875 36.0159375 -26.3046875 35.3359375 C-26.02496094 35.87863281 -25.74523437 36.42132813 -25.45703125 36.98046875 C-23.32833247 40.77927204 -21.79239344 43.02643181 -18.0546875 45.3984375 C-13.49121367 46.53930596 -9.83673068 46.62454552 -5.3046875 45.3359375 C-2.50619905 43.37699559 -1.58892944 42.02877723 -0.3046875 38.8984375 C-0.09037663 36.23569497 -0.09037663 36.23569497 -1.71875 33.8984375 C-5.27094024 30.37844233 -8.98706609 29.29353209 -13.6796875 27.7734375 C-27.30872594 23.25488706 -27.30872594 23.25488706 -30.65625 18.359375 C-32.29166429 13.25609425 -32.00017099 8.72690447 -29.6171875 3.9609375 C-22.46741881 -4.15501615 -9.27258921 -5.47043966 0 0 Z " fill="#5E6168" transform="translate(736.3046875,285.6640625)"/>
<path d="M0 0 C5.46821062 3.23327806 7.80960294 7.25524388 9.5 13.3125 C7.19 13.9725 4.88 14.6325 2.5 15.3125 C-0.5 10.5625 -0.5 10.5625 -0.5 8.3125 C-6.20629109 5.80335073 -10.52337524 4.77068801 -16.609375 6.515625 C-18.66878548 7.27139094 -18.66878548 7.27139094 -20.625 9.125 C-21.62581309 11.3088833 -21.62581309 11.3088833 -21.6875 13.8125 C-19.8092938 17.76661831 -16.39299891 18.82169267 -12.5 20.3125 C-10.46246166 20.99167945 -8.42054319 21.65782429 -6.375 22.3125 C0.24574468 24.45548663 5.98345068 26.95566084 9.5 33.3125 C10.28419112 38.54577544 10.12478841 42.88069322 8 47.75 C2.46866196 53.41962149 -2.19282954 54.57096181 -10.125 54.75 C-16.89886099 54.74301664 -21.15846516 53.38795133 -26.25 48.875 C-29.71531737 44.92838855 -30.79303372 42.58710689 -30.5 37.3125 C-27.035 36.8175 -27.035 36.8175 -23.5 36.3125 C-22.88125 37.9521875 -22.88125 37.9521875 -22.25 39.625 C-20.81608535 42.88090711 -19.82408702 44.73793247 -16.5 46.3125 C-10.34010675 47.84350259 -5.97866665 47.55497618 -0.5 44.3125 C1.43128416 41.8983948 1.53749393 40.824917 1.3125 37.75 C0.41061329 35.04433986 -0.35098601 34.13400438 -2.5 32.3125 C-4.50291636 31.3442286 -4.50291636 31.3442286 -6.73828125 30.62890625 C-7.55876953 30.34080078 -8.37925781 30.05269531 -9.22460938 29.75585938 C-10.07861328 29.46517578 -10.93261719 29.17449219 -11.8125 28.875 C-25.11726852 24.34506734 -25.11726852 24.34506734 -28.875 19.5625 C-30.15569448 14.95199987 -30.18940252 10.90901109 -28.3125 6.5625 C-21.39849452 -2.02040335 -10.13582829 -4.69709116 0 0 Z " fill="#5E6168" transform="translate(30.5,284.6875)"/>
<path d="M0 0 C11.88 0 23.76 0 36 0 C36 2.31 36 4.62 36 7 C26.43 7 16.86 7 7 7 C7 11.95 7 16.9 7 22 C14.59 22 22.18 22 30 22 C30 24.31 30 26.62 30 29 C22.41 29 14.82 29 7 29 C7 34.94 7 40.88 7 47 C16.9 47 26.8 47 37 47 C37 49.31 37 51.62 37 54 C24.79 54 12.58 54 0 54 C0 36.18 0 18.36 0 0 Z " fill="#5E6168" transform="translate(954,284)"/>
<path d="M0 0 C2.31 0 4.62 0 7 0 C12.12338044 9.72917194 16.43687324 19.76424908 20.71582031 29.88525391 C21.88827931 32.65638594 23.06877302 35.42400195 24.25 38.19140625 C24.99787163 39.95292307 25.74528486 41.7146346 26.4921875 43.4765625 C26.84521942 44.30354645 27.19825134 45.1305304 27.5619812 45.98257446 C30 51.76985725 30 51.76985725 30 54 C27.36 54 24.72 54 22 54 C21.16235732 52.04350603 20.33000941 50.08474444 19.5 48.125 C19.0359375 47.03445313 18.571875 45.94390625 18.09375 44.8203125 C17 42 17 42 17 40 C8.42 40.33 -0.16 40.66 -9 41 C-10.65 44.96 -12.3 48.92 -14 53 C-15 54 -15 54 -16.84765625 54.09765625 C-18.8984375 54.06510417 -20.94921875 54.03255208 -23 54 C-18.73414493 42.34126453 -13.70664867 31.03595361 -8.6875 19.6875 C-7.84282066 17.77160705 -6.99841752 15.8555923 -6.15429688 13.93945312 C-4.10604348 9.29155963 -2.05406882 4.64532621 0 0 Z M3 10 C1.4943349 13.62267294 -0.00356546 17.24850549 -1.5 20.875 C-1.92925781 21.90753906 -2.35851563 22.94007813 -2.80078125 24.00390625 C-3.20683594 24.99003906 -3.61289063 25.97617187 -4.03125 26.9921875 C-4.40830078 27.90339355 -4.78535156 28.81459961 -5.17382812 29.75341797 C-6.11504919 31.91390327 -6.11504919 31.91390327 -6 34 C0.6 34 7.2 34 14 34 C12.73658722 30.74693718 11.46464728 27.49766699 10.1875 24.25 C9.65286133 22.86941406 9.65286133 22.86941406 9.10742188 21.4609375 C8.75615234 20.57148438 8.40488281 19.68203125 8.04296875 18.765625 C7.72352295 17.94868164 7.40407715 17.13173828 7.07495117 16.29003906 C5.96356766 13.9223858 4.63779925 12.03144216 3 10 Z " fill="#5E6168" transform="translate(1766,284)"/>
<path d="M0 0 C2.64 0 5.28 0 8 0 C8.31114746 0.72775635 8.62229492 1.4555127 8.94287109 2.20532227 C10.1476867 5.02238012 11.35314357 7.83916263 12.55895996 10.65579224 C13.1019314 11.92446511 13.64465699 13.19324323 14.18713379 14.46212769 C17.10215598 21.2800552 20.03012798 28.09095854 23.0234375 34.875 C23.48443848 35.92228271 23.94543945 36.96956543 24.42041016 38.04858398 C25.29305958 40.02670686 26.17019515 42.00285799 27.05224609 43.97680664 C27.44234863 44.86231201 27.83245117 45.74781738 28.234375 46.66015625 C28.57694336 47.42980713 28.91951172 48.19945801 29.27246094 48.99243164 C30 51 30 51 30 54 C27.36 54 24.72 54 22 54 C21.16235732 52.04350603 20.33000941 50.08474444 19.5 48.125 C19.0359375 47.03445313 18.571875 45.94390625 18.09375 44.8203125 C17 42 17 42 17 40 C8.42 40 -0.16 40 -9 40 C-9.99 42.97 -10.98 45.94 -12 49 C-13.1875 52.0625 -13.1875 52.0625 -15 54 C-16.92700195 54.18920898 -16.92700195 54.18920898 -19.11328125 54.12109375 C-20.39589844 54.08113281 -21.67851563 54.04117188 -23 54 C-18.00787866 41.74427794 -12.83370018 29.57552635 -7.5625 17.4375 C-6.82342655 15.73248305 -6.08449363 14.02740519 -5.34570312 12.32226562 C-3.56541239 8.2141435 -1.78325299 4.10683708 0 0 Z M3 11 C1.49414477 14.45581315 -0.00368289 17.91504753 -1.5 21.375 C-1.92925781 22.35984375 -2.35851563 23.3446875 -2.80078125 24.359375 C-3.40986328 25.77089844 -3.40986328 25.77089844 -4.03125 27.2109375 C-4.59682617 28.51490479 -4.59682617 28.51490479 -5.17382812 29.84521484 C-6.11933353 31.9266173 -6.11933353 31.9266173 -6 34 C0.6 34 7.2 34 14 34 C11.05498828 26.31024717 8.08491206 18.6347265 5 11 C4.34 11 3.68 11 3 11 Z " fill="#5E6168" transform="translate(1289,284)"/>
<path d="M0 0 C2.31 0 4.62 0 7 0 C9.47587714 5.5992559 11.94761823 11.20031362 14.41577148 16.80297852 C15.25354238 18.70320181 16.09238324 20.60295379 16.93237305 22.50219727 C21.53656777 32.91442321 26.08638523 43.30394993 30 54 C27.36 54 24.72 54 22 54 C21.18501438 52.3970947 20.37310073 50.79262722 19.5625 49.1875 C19.11003906 48.29417969 18.65757812 47.40085937 18.19140625 46.48046875 C17 44 17 44 16 41 C3.13 40.505 3.13 40.505 -10 40 C-10.99 42.97 -11.98 45.94 -13 49 C-13.64896236 50.67363977 -14.30580437 52.34461042 -15 54 C-17.64 54 -20.28 54 -23 54 C-22.32037675 48.89732918 -20.17656628 44.48352949 -18.10546875 39.82421875 C-17.522528 38.49823418 -17.522528 38.49823418 -16.92781067 37.14546204 C-16.10551626 35.2776574 -15.28080871 33.41091354 -14.45385742 31.54516602 C-13.19755749 28.71019575 -11.94871988 25.87203398 -10.70117188 23.03320312 C-9.89887662 21.21334801 -9.09615584 19.39368043 -8.29296875 17.57421875 C-7.92302292 16.73436935 -7.55307709 15.89451996 -7.17192078 15.02922058 C-4.91556088 9.94476141 -2.52371034 4.95740253 0 0 Z M3 10 C-0.70835723 17.87434152 -3.93423698 25.85382969 -7 34 C-0.4 34 6.2 34 13 34 C11.07086147 28.21258441 9.10959798 22.56964393 6.8125 16.9375 C6.53986328 16.26267578 6.26722656 15.58785156 5.98632812 14.89257812 C5.32664689 13.26073506 4.66368579 11.63021848 4 10 C3.67 10 3.34 10 3 10 Z " fill="#5E6168" transform="translate(211,284)"/>
<path d="M0 0 C2.31 0 4.62 0 7 0 C7.01458252 1.11971191 7.02916504 2.23942383 7.04418945 3.39306641 C7.10234886 7.56428274 7.17958023 11.73496919 7.26245117 15.90576172 C7.29561773 17.70775729 7.32367525 19.50985467 7.34643555 21.31201172 C7.38013432 23.90896823 7.43245649 26.50499866 7.48828125 29.1015625 C7.49467117 29.9017984 7.5010611 30.7020343 7.50764465 31.52651978 C7.65499005 37.18636724 8.72372885 41.46108218 12.625 45.8125 C16.96534271 47.98267136 21.49882646 48.52360207 26.2578125 47.52734375 C30.24050299 46.1826346 33.00182729 44.87880585 35 41 C36.20878272 36.87683113 36.22598621 32.7826664 36.31640625 28.515625 C36.33718735 27.70003113 36.35796844 26.88443726 36.37937927 26.04412842 C36.44461297 23.44616895 36.50363768 20.84811087 36.5625 18.25 C36.60571014 16.485667 36.64932522 14.72134387 36.69335938 12.95703125 C36.80026745 8.63812116 36.90160827 4.31911216 37 0 C39.31 0 41.62 0 44 0 C44.12452146 5.51342732 44.21476997 11.02601847 44.2746582 16.54052734 C44.29964898 18.41241737 44.33365373 20.28421135 44.37719727 22.15576172 C44.84485558 42.78774636 44.84485558 42.78774636 39 50 C32.92163346 55.62074184 25.75885126 55.42231538 17.96875 55.2734375 C12.12665755 54.87093113 8.38596244 53.65106938 4.453125 49.28125 C1.45354775 45.3042824 -0.12907376 41.94897178 -0.11352539 36.89575195 C-0.11344986 36.07512772 -0.11337433 35.25450348 -0.11329651 34.40901184 C-0.10813522 33.52767075 -0.10297394 32.64632965 -0.09765625 31.73828125 C-0.0962413 30.83248825 -0.09482635 29.92669525 -0.09336853 28.99345398 C-0.08777001 26.09976909 -0.07521781 23.20616151 -0.0625 20.3125 C-0.05748481 18.35091258 -0.05292193 16.38932394 -0.04882812 14.42773438 C-0.03780107 9.61845979 -0.02053747 4.809243 0 0 Z " fill="#5E6168" transform="translate(611,284)"/>
<path d="M0 0 C2.31 0 4.62 0 7 0 C7.01458252 1.08418213 7.02916504 2.16836426 7.04418945 3.28540039 C7.10243472 7.33178664 7.1796647 11.37763159 7.26245117 15.42358398 C7.29557767 17.17023899 7.32364737 18.91699788 7.34643555 20.66381836 C7.38020881 23.1838787 7.43253347 25.70299752 7.48828125 28.22265625 C7.49467117 28.99585709 7.5010611 29.76905792 7.50764465 30.56568909 C7.64574222 35.73010264 8.59673911 39.40444452 11 44 C14.75001352 47.2142973 19.12208292 48.15243491 24 48 C28.00035389 47.13563782 31.07013182 45.95986393 33.9375 43 C36.29570875 38.56101883 36.21600925 34.29480637 36.31640625 29.39453125 C36.33718735 28.55532639 36.35796844 27.71612152 36.37937927 26.85148621 C36.44474018 24.17190706 36.50369714 21.49223031 36.5625 18.8125 C36.60569802 16.99543263 36.64931273 15.17837512 36.69335938 13.36132812 C36.8004078 8.90765201 36.90171319 4.45387774 37 0 C39.31 0 41.62 0 44 0 C44.0994991 5.53176738 44.17176423 11.06300426 44.21972656 16.59545898 C44.2397382 18.47413213 44.26695637 20.3527438 44.30175781 22.23120117 C44.3507397 24.94465373 44.37307329 27.65727696 44.390625 30.37109375 C44.41127014 31.19959335 44.43191528 32.02809296 44.45318604 32.88169861 C44.45545208 38.88314253 43.22212905 43.87514608 40 49 C33.44918895 55.26844446 26.51061287 55.43102176 17.97265625 55.28125 C11.6665227 54.83479807 8.14278722 53.14278722 3.625 48.625 C-0.02054629 42.73604061 -0.27747971 37.382134 -0.1953125 30.6640625 C-0.1924826 29.78471039 -0.18965271 28.90535828 -0.18673706 27.99935913 C-0.17559712 25.20776406 -0.15050411 22.4164971 -0.125 19.625 C-0.1149622 17.72526507 -0.10583775 15.82552508 -0.09765625 13.92578125 C-0.07567806 9.28372893 -0.0411911 4.64191998 0 0 Z " fill="#5E6168" transform="translate(1363,284)"/>
<path d="M0 0 C14.19 0 28.38 0 43 0 C43 2.31 43 4.62 43 7 C37.06 7 31.12 7 25 7 C25 22.51 25 38.02 25 54 C22.69 54 20.38 54 18 54 C18 38.49 18 22.98 18 7 C12.06 7 6.12 7 0 7 C0 4.69 0 2.38 0 0 Z " fill="#5E6168" transform="translate(1832,284)"/>
<path d="M0 0 C14.19 0 28.38 0 43 0 C43 2.31 43 4.62 43 7 C37.06 7 31.12 7 25 7 C25 22.51 25 38.02 25 54 C22.69 54 20.38 54 18 54 C18 38.49 18 22.98 18 7 C12.06 7 6.12 7 0 7 C0 4.69 0 2.38 0 0 Z " fill="#5E6168" transform="translate(1454,284)"/>
<path d="M0 0 C14.19 0 28.38 0 43 0 C43 2.31 43 4.62 43 7 C37.06 7 31.12 7 25 7 C25 22.51 25 38.02 25 54 C22.69 54 20.38 54 18 54 C18 38.49 18 22.98 18 7 C12.06 7 6.12 7 0 7 C0 4.69 0 2.38 0 0 Z " fill="#5E6168" transform="translate(371,284)"/>
<path d="M0 0 C2.31 0 4.62 0 7 0 C7 17.82 7 35.64 7 54 C4.69 54 2.38 54 0 54 C0 36.18 0 18.36 0 0 Z " fill="#5E6168" transform="translate(1924,284)"/>
<path d="M0 0 C2.31 0 4.62 0 7 0 C7 17.82 7 35.64 7 54 C4.69 54 2.38 54 0 54 C0 36.18 0 18.36 0 0 Z " fill="#5E6168" transform="translate(794,284)"/>
<path d="M0 0 C19.14 0 38.28 0 58 0 C57.67 0.66 57.34 1.32 57 2 C56.31983826 1.99333817 55.63967651 1.98667633 54.93890381 1.97981262 C47.86638104 1.91349527 40.79394646 1.8682142 33.72119141 1.83520508 C31.08085544 1.8201091 28.44054458 1.79963046 25.80029297 1.77368164 C22.00742397 1.73733509 18.21488623 1.72028155 14.421875 1.70703125 C13.23946228 1.69154739 12.05704956 1.67606354 10.83880615 1.66011047 C9.1875473 1.65977058 9.1875473 1.65977058 7.50292969 1.65942383 C6.53474304 1.65276199 5.5665564 1.64610016 4.56903076 1.63923645 C1.58988618 2.05759141 0.21840307 3.01917201 -2 5 C-1.34 3.35 -0.68 1.7 0 0 Z " fill="#ABC933" transform="translate(928,3)"/>
</svg>
