<?xml version="1.0" standalone="no"?>
<!DOCTYPE svg PUBLIC "-//W3C//DTD SVG 20010904//EN"
 "http://www.w3.org/TR/2001/REC-SVG-20010904/DTD/svg10.dtd">
<svg version="1.0" xmlns="http://www.w3.org/2000/svg"
 width="218.000000pt" height="231.000000pt" viewBox="0 0 218.000000 231.000000"
 preserveAspectRatio="xMidYMid meet">
<metadata>
Created by potrace 1.10, written by Peter Selinger 2001-2011
</metadata>
<g transform="translate(0.000000,231.000000) scale(0.100000,-0.100000)"
fill="#000000" stroke="none">
<path d="M435 1885 c-30 -29 -31 -41 -5 -55 15 -8 21 -6 30 10 22 42 80 10 80
-44 0 -15 -16 -74 -35 -130 -61 -179 -66 -358 -14 -549 l11 -42 13 39 c11 32
11 51 -1 113 -25 131 -15 272 28 403 l21 65 13 -30 c7 -16 38 -103 70 -192 52
-147 60 -163 81 -163 13 0 23 3 23 6 0 4 -36 107 -80 229 -44 122 -80 232 -80
244 0 95 -97 155 -155 96z"/>
<path d="M1040 1830 c-41 -7 -76 -25 -108 -54 -34 -30 -43 -52 -58 -131 -7
-38 -20 -104 -29 -144 -25 -115 -1 -191 60 -191 19 0 26 7 34 36 9 32 7 41
-13 68 -31 42 -46 89 -46 148 0 62 6 72 81 147 59 59 62 61 113 61 51 0 53 -1
121 -70 67 -67 69 -71 73 -128 3 -45 -1 -70 -18 -110 -12 -28 -28 -56 -36 -62
-7 -6 -11 -17 -9 -23 2 -7 6 -24 9 -39 13 -60 86 -19 100 56 4 21 -3 76 -18
148 -14 62 -27 130 -31 150 -14 89 -123 155 -225 138z m242 -406 c-26 -18 -29
-49 -4 -63 14 -9 14 -10 2 -11 -20 0 -40 19 -40 39 0 20 30 51 49 51 11 0 9
-4 -7 -16z m-382 -22 c0 -9 -9 -23 -19 -29 -23 -15 -24 4 -1 30 19 21 20 21
20 -1z"/>
<path d="M988 1663 c-53 -54 -58 -62 -58 -103 0 -25 9 -63 19 -85 22 -50 84
-105 117 -105 78 0 154 98 154 199 0 31 -9 45 -60 96 l-60 59 0 -57 c0 -54 -1
-57 -25 -57 -22 0 -24 4 -27 55 l-3 56 -57 -58z m44 -68 c17 -22 23 -24 36
-13 12 10 14 10 8 1 -11 -19 8 -15 37 7 32 25 44 25 58 -1 14 -27 5 -72 -23
-112 l-22 -32 24 20 24 20 -17 -25 c-10 -14 -21 -25 -25 -25 -4 -1 -17 -6 -30
-13 -12 -7 -31 -10 -41 -7 -18 5 -75 68 -96 105 -8 13 -7 13 10 0 17 -14 18
-14 7 7 -16 30 -15 53 5 75 21 23 21 23 45 -7z"/>
<path d="M1527 1569 c-18 -46 -15 -59 13 -59 11 0 22 11 28 28 5 15 13 36 18
46 5 14 4 17 -5 12 -6 -4 -18 -3 -25 3 -10 9 -17 2 -29 -30z"/>
<path d="M1630 1563 c-1 -10 -7 -29 -15 -43 -14 -26 -5 -50 20 -50 10 0 51 82
42 84 -1 1 -12 7 -24 14 -20 11 -23 10 -23 -5z"/>
<path d="M1720 1523 c-1 -10 -7 -29 -15 -43 -14 -26 -5 -50 20 -50 10 0 51 82
42 84 -1 1 -12 7 -24 14 -20 11 -23 10 -23 -5z"/>
<path d="M1517 1418 c-9 -23 -16 -42 -14 -44 1 -1 12 -5 24 -8 19 -6 25 -1 38
30 18 44 14 64 -13 64 -13 0 -24 -13 -35 -42z"/>
<path d="M1612 1381 c-15 -49 -16 -48 8 -54 16 -4 24 2 36 31 17 42 12 62 -14
62 -13 0 -22 -12 -30 -39z"/>
<path d="M986 1334 c-12 -32 -5 -43 33 -55 39 -11 113 -6 139 10 9 5 11 17 7
34 -7 25 -8 26 -28 12 -28 -19 -96 -19 -124 0 -19 13 -22 13 -27 -1z"/>
<path d="M1443 1310 c-10 -27 -9 -30 8 -30 29 0 90 -60 116 -115 19 -40 24
-46 29 -30 3 11 16 45 28 75 l22 55 -95 37 c-53 21 -96 38 -96 38 0 0 -6 -13
-12 -30z"/>
<path d="M930 1261 c0 -35 89 -91 145 -91 41 0 109 33 129 61 26 37 19 40 -30
14 -62 -33 -134 -34 -197 -1 -26 13 -47 20 -47 17z"/>
<path d="M693 1245 l-31 -13 28 -71 c57 -139 110 -418 110 -577 0 -62 1 -64
25 -64 19 0 25 5 25 21 0 62 -67 601 -86 692 -6 30 -22 33 -71 12z"/>
<path d="M846 1253 c-16 -4 -18 -12 -11 -81 14 -155 83 -356 148 -436 23 -28
25 -29 57 -16 26 11 38 11 68 0 33 -12 36 -11 54 11 62 79 127 260 148 412 14
105 14 104 -15 109 -23 5 -25 3 -25 -36 0 -22 -9 -81 -19 -131 -40 -191 -137
-339 -201 -305 -71 38 -154 237 -167 403 -3 42 -9 76 -12 76 -3 -1 -14 -3 -25
-6z"/>
<path d="M1366 1173 c-9 -84 -38 -213 -65 -284 -12 -30 -21 -57 -21 -60 0 -13
75 10 87 27 19 26 33 82 33 132 0 38 2 42 25 42 l25 0 0 -172 c0 -139 -4 -188
-20 -248 -11 -41 -20 -78 -20 -82 0 -5 35 -8 78 -8 l79 0 0 77 c0 43 6 128 13
190 12 101 12 119 -4 197 -21 97 -69 201 -106 227 -14 9 -41 20 -61 23 l-37 6
-6 -67z m84 -4 c0 -4 7 -5 17 -2 9 4 14 2 10 -4 -3 -5 5 -31 18 -58 14 -27 25
-57 25 -67 0 -11 5 -16 10 -13 6 3 10 2 10 -4 0 -5 -5 -13 -10 -16 -8 -5 -7
-12 2 -22 7 -9 13 -42 13 -78 0 -35 3 -61 8 -58 4 2 7 0 7 -6 0 -5 -4 -12 -9
-15 -4 -3 -11 -36 -15 -73 -3 -37 -9 -86 -13 -107 -4 -28 -3 -37 5 -32 7 4 12
3 12 -2 0 -9 -52 -62 -62 -62 -7 0 -2 75 9 157 5 34 6 60 3 58 -5 -3 -4 59 3
167 1 20 -1 34 -5 32 -5 -3 -8 -1 -8 5 0 5 4 12 10 16 20 12 -33 90 -56 81 -6
-2 -21 4 -33 15 -24 23 -26 30 -8 27 7 -2 11 6 10 20 -4 32 14 63 32 56 8 -4
15 -10 15 -15z"/>
<path d="M586 1148 c-14 -24 -31 -64 -38 -91 l-12 -47 61 -58 c58 -54 62 -61
77 -132 9 -41 20 -124 25 -183 5 -60 12 -111 14 -114 3 -2 14 -3 24 -1 18 3
18 9 6 143 -7 77 -20 178 -29 225 -17 96 -82 300 -95 300 -4 0 -19 -19 -33
-42z m44 -89 c4 -8 11 -29 15 -46 5 -25 3 -33 -8 -33 -24 0 -48 35 -45 67 2
32 24 39 38 12z"/>
<path d="M936 1141 c40 -177 100 -311 140 -311 29 0 100 146 124 258 6 26 13
56 17 66 5 18 3 17 -31 -4 -25 -15 -59 -24 -99 -27 -52 -4 -70 -1 -109 20
l-48 24 6 -26z m164 -136 c0 -63 -1 -65 -25 -65 -24 0 -25 2 -25 65 0 63 1 65
25 65 24 0 25 -2 25 -65z"/>
<path d="M554 896 c-3 -14 1 -69 10 -122 9 -52 16 -131 16 -175 l0 -79 40 0
39 0 -5 53 c-22 229 -37 296 -69 327 l-24 23 -7 -27z"/>
<path d="M874 795 c3 -16 11 -85 17 -152 l13 -123 226 0 227 0 21 98 c12 53
22 119 22 146 l0 48 -27 -17 c-15 -10 -49 -19 -76 -20 -42 -1 -51 -6 -66 -31
-10 -16 -28 -38 -38 -50 -20 -20 -20 -21 -2 -43 18 -22 18 -23 -7 -56 -33 -44
-86 -69 -128 -61 -31 6 -106 68 -106 88 0 5 5 18 11 30 9 16 7 24 -10 42 -11
12 -34 46 -51 76 -26 45 -30 49 -26 25z m478 -62 c19 -17 25 -39 8 -28 -6 4
-10 -7 -10 -25 0 -33 -4 -36 -67 -43 -36 -4 -43 -2 -49 15 -8 26 41 78 73 78
14 0 21 4 18 10 -10 16 7 12 27 -7z m-24 -125 c7 -7 12 -26 11 -42 0 -17 -3
-25 -6 -17 -5 11 -7 11 -14 0 -6 -10 -9 -8 -9 9 0 13 -6 22 -15 22 -8 0 -15
-5 -15 -11 0 -5 5 -7 10 -4 6 3 10 2 10 -3 0 -11 -40 -23 -52 -16 -13 8 -9 41
8 58 18 19 55 21 72 4z"/>
<path d="M1033 656 l-28 -24 24 -26 c14 -14 34 -26 46 -26 12 0 32 12 46 26
l24 26 -28 24 c-15 13 -34 24 -42 24 -8 0 -27 -11 -42 -24z"/>
<path d="M0 105 c0 -8 4 -15 10 -15 5 0 7 -13 4 -30 -5 -25 -3 -30 17 -34 49
-10 336 -13 353 -4 11 6 16 19 14 36 l-3 27 607 3 607 2 13 -27 13 -28 245 -2
c252 -2 270 0 270 38 0 11 7 19 15 19 8 0 15 7 15 15 0 13 -128 15 -1090 15
-962 0 -1090 -2 -1090 -15z m228 -33 c-4 -15 0 -18 29 -15 24 1 32 -1 27 -10
-4 -7 1 -5 10 3 19 19 96 15 96 -5 0 -16 -191 -16 -202 0 -5 6 -8 6 -8 -2 0
-15 -89 -15 -107 -1 -9 7 -13 7 -13 -1 0 -14 -27 -14 -36 0 -16 26 51 31 68 5
6 -8 8 -8 8 0 0 6 14 11 30 12 17 0 30 -4 30 -9 0 -6 7 -3 16 5 8 9 20 14 25
11 5 -4 9 1 9 9 0 9 5 16 11 16 6 0 9 -8 7 -18z m1441 -4 c8 -7 11 -8 8 -2 -4
7 11 10 43 10 28 -1 50 -5 50 -11 0 -5 5 -3 10 5 8 13 10 12 10 -3 0 -15 -8
-18 -42 -16 -24 1 -47 0 -53 -1 -29 -7 -65 1 -65 15 0 18 21 20 39 3z m161 0
c0 -9 4 -8 10 2 8 13 10 13 10 1 0 -12 3 -12 12 -3 16 16 28 15 28 -3 0 -11
-12 -15 -45 -15 -33 0 -45 4 -45 15 0 8 7 15 15 15 8 0 15 -6 15 -12z m303 2
c4 0 7 -4 7 -10 0 -5 -19 -9 -42 -9 -24 1 -47 0 -53 -1 -5 -1 -40 -2 -77 -1
-47 1 -68 5 -68 14 0 9 28 11 112 10 62 -1 116 -2 121 -3z"/>
</g>
</svg>
